<svg width="881" height="562" viewBox="0 0 881 562" fill="none" xmlns="http://www.w3.org/2000/svg">
<path d="M56.7859 136.801C66.9599 99.8157 86.8903 75.2703 114.025 61.1885C141.238 47.0657 175.924 43.3526 215.739 48.5334C295.395 58.8986 394.864 104.772 494.033 172.321C499.486 176.035 505.478 179.08 511.764 181.173C563.371 198.358 612.533 211.939 656.354 224.817C700.223 237.71 738.703 249.889 769.144 264.29C799.604 278.7 821.723 295.204 833.203 316.578C844.628 337.851 845.714 364.336 833.253 399.214C817.147 436.988 796.799 458.274 772.039 468.559C747.189 478.882 717.544 478.276 682.542 471.491C647.542 464.705 607.518 451.816 561.974 437.849C516.479 423.897 465.586 408.908 409.039 398.019C408.022 397.823 406.975 397.713 405.943 397.69C304.404 395.398 207.368 375.638 140.624 333.676C107.279 312.713 81.5592 286.249 66.5527 253.711C51.5598 221.202 47.1858 182.467 56.7859 136.801Z" fill="#2E2E2E" stroke="#CC7F53" stroke-width="3.93188" stroke-linecap="round"/>
<path d="M76.3362 139.726C85.2714 107.032 104.457 86.532 131.116 75.9697C157.903 65.3562 192.425 64.7086 231.998 72.2369C311.134 87.2917 409.634 134.877 504.687 198.702C510.02 202.283 515.86 205.221 521.986 207.248C569.289 222.895 613.595 234.327 652.767 244.684C691.984 255.053 725.975 264.326 752.833 275.665C779.706 287.01 799.11 300.294 809.49 318.481C819.813 336.569 821.432 359.916 811.834 391.94C796.236 423.777 776.023 441.218 751.397 449.051C726.619 456.933 697.107 455.177 662.811 448.017C628.525 440.859 589.753 428.371 546.496 415.017C503.282 401.677 455.678 387.501 403.897 377.049C402.634 376.794 401.33 376.674 400.048 376.685C304.182 377.524 215.156 357.479 154.184 317.589C123.718 297.657 100.307 272.806 86.4875 243.176C72.6839 213.58 68.3879 179.087 76.3362 139.726Z" fill="#2E2E2E" stroke="#CC7F53" stroke-width="3.93188" stroke-linecap="round"/>
<path d="M394.166 376.426L432.076 357.739M590.946 357.096L472.869 340.768C470.708 340.469 468.507 340.799 466.529 341.719L432.076 357.739M432.076 357.739L592.139 384.206M464.956 307.521L596.938 328.345M628.52 438.914C573.189 406.793 579.672 288.815 673.979 250.707" stroke="#CC7F53" stroke-width="3.93188" stroke-linecap="round"/>
<path d="M245.438 118.294C253.046 95.8941 279.695 84.3091 305.262 92.9933C330.829 101.677 344.909 127.096 337.301 149.496C329.693 171.895 303.045 183.479 277.477 174.795C251.91 166.111 237.83 140.693 245.438 118.294Z" fill="#2E2E2E" stroke="#CC7F53" stroke-width="3.93188" stroke-linecap="round"/>
<path d="M259.598 77.8509C238.146 83.1896 222.127 98.2227 215.862 116.666C204.066 151.397 231.667 192.175 277.512 207.746C323.356 223.318 358.148 209.884 373.479 173.008C379.487 155.32 381.88 143.233 374.857 122.61" stroke="#CC7F53" stroke-width="3.93188" stroke-linecap="round"/>
<path d="M209.242 69.1643C196.947 88.8359 188.979 117.355 193.038 142.581C197.021 180.407 221.844 221.103 267.689 236.675C313.533 252.246 360.05 239.99 385.465 207.941C397.734 192.469 415.387 160.225 408.364 139.603" stroke="#CC7F53" stroke-width="3.93188" stroke-linecap="round"/>
<path d="M164.888 68.4918C153.829 92.7918 147.429 124.825 153.898 154.539C160.875 198.993 193.531 245.155 253.659 265.578C313.787 286.001 361.61 265.771 394.122 236.132C411.235 220.531 433.777 176.292 435.154 155.717" stroke="#CC7F53" stroke-width="3.93188" stroke-linecap="round"/>
<path d="M132.756 75.45C119.771 103.501 122.183 137.64 126.963 163.626C136.523 215.565 175.132 271.871 249.22 297.035C323.308 322.2 380.047 295.255 419.177 261.476C439.774 243.695 466.59 199.158 467.805 175.224" stroke="#CC7F53" stroke-width="3.93188" stroke-linecap="round"/>
<path d="M108.741 88.335C94.122 119.541 97.2551 154.465 103.175 183.622C115.012 241.9 157.868 308.054 250.358 328.985C299.86 340.187 388.092 340.697 440.821 296.883C464.406 277.286 503.751 226.148 504.804 199.376" stroke="#CC7F53" stroke-width="3.93188" stroke-linecap="round"/>
<path d="M644.487 339.405C653.757 312.113 685.709 297.967 716.106 308.291C746.502 318.616 763.228 349.296 753.958 376.588C744.688 403.879 712.737 418.025 682.341 407.701C651.944 397.376 635.218 366.697 644.487 339.405Z" fill="#2E2E2E" stroke="#CC7F53" stroke-width="3.93188" stroke-linecap="round"/>
<path d="M626.881 333.426C640.895 292.166 687.427 270.496 730.939 285.276C774.451 300.055 798.159 345.582 784.145 386.842C770.13 428.102 723.599 449.773 680.086 434.993C636.574 420.214 612.867 374.686 626.881 333.426Z" fill="#2E2E2E" stroke="#CC7F53" stroke-width="3.93188" stroke-linecap="round"/>
<path d="M711.251 406.012L674.705 389.712L676.631 384.222L700.043 382.68L705.742 382.645L705.78 382.539C704.027 381.165 702.557 379.951 701.371 378.896L684.058 363.061L685.985 357.571L724.684 367.74L722.85 372.964L698.494 366.451L692.913 364.612L692.876 364.719C694.911 366.311 696.522 367.635 697.709 368.69L712.021 382.155L710.375 386.845L690.805 388.359L684.444 388.401L684.407 388.508C686.671 389.222 688.542 389.919 690.02 390.597L713.103 400.735L711.251 406.012ZM722.379 360.49L719.429 356.102C721.025 355.306 722.514 354.192 723.894 352.76C725.239 351.316 726.211 349.742 726.81 348.036C727.508 346.046 727.59 344.279 727.054 342.734C726.483 341.176 725.38 340.111 723.746 339.537C722.218 339.001 720.703 339.167 719.2 340.037C717.662 340.894 716.202 342.098 714.819 343.648C713.45 345.163 712.026 346.659 710.55 348.137C709.073 349.614 707.353 350.707 705.388 351.414C703.424 352.121 701.358 352.095 699.19 351.334C696.063 350.236 693.945 348.196 692.837 345.213C691.741 342.194 691.817 338.908 693.064 335.354C694.573 331.054 697.081 328.003 700.588 326.201L704.063 330.114C702.694 330.831 701.439 331.848 700.299 333.164C699.171 334.444 698.351 335.813 697.84 337.27C697.154 339.224 697.084 341.016 697.63 342.644C698.141 344.26 699.195 345.349 700.794 345.91C702.038 346.347 703.296 346.289 704.567 345.737C705.838 345.186 706.995 344.335 708.038 343.184C709.045 342.021 710.196 340.788 711.491 339.486C712.75 338.172 714.008 336.977 715.263 335.901C716.519 334.825 718.013 334.093 719.747 333.703C721.48 333.314 723.288 333.449 725.171 334.11C728.228 335.183 730.412 337.147 731.725 340.002C733.002 342.845 732.986 346.133 731.676 349.864C729.967 354.732 726.868 358.274 722.379 360.49Z" fill="#FF9F68"/>
<path d="M293.951 156.26L275.095 147.851L276.089 145.018L288.168 144.223L291.108 144.205L291.128 144.15C290.223 143.441 289.465 142.814 288.853 142.27L279.921 134.1L280.915 131.268L300.881 136.515L299.935 139.21L287.369 135.85L284.489 134.901L284.47 134.956C285.52 135.777 286.351 136.46 286.963 137.005L294.348 143.952L293.498 146.372L283.402 147.153L280.12 147.174L280.101 147.229C281.268 147.598 282.234 147.958 282.996 148.308L294.906 153.538L293.951 156.26ZM299.692 132.774L298.17 130.51C298.993 130.099 299.762 129.524 300.474 128.786C301.168 128.041 301.669 127.228 301.978 126.348C302.338 125.322 302.38 124.41 302.104 123.613C301.809 122.809 301.24 122.259 300.397 121.963C299.609 121.687 298.827 121.773 298.052 122.221C297.258 122.664 296.505 123.285 295.792 124.085C295.085 124.866 294.351 125.638 293.589 126.4C292.827 127.163 291.939 127.726 290.926 128.091C289.912 128.456 288.846 128.442 287.728 128.05C286.114 127.484 285.022 126.431 284.45 124.892C283.885 123.334 283.924 121.639 284.567 119.805C285.346 117.587 286.64 116.013 288.449 115.083L290.242 117.102C289.536 117.472 288.888 117.996 288.3 118.675C287.718 119.336 287.295 120.042 287.031 120.794C286.677 121.802 286.641 122.726 286.923 123.567C287.186 124.4 287.73 124.962 288.556 125.252C289.197 125.477 289.846 125.447 290.502 125.162C291.158 124.878 291.755 124.439 292.293 123.845C292.812 123.245 293.406 122.609 294.074 121.937C294.724 121.259 295.373 120.643 296.021 120.088C296.668 119.532 297.44 119.154 298.334 118.953C299.228 118.752 300.161 118.823 301.133 119.164C302.709 119.717 303.836 120.73 304.514 122.204C305.173 123.67 305.164 125.366 304.489 127.291C303.607 129.803 302.008 131.631 299.692 132.774Z" fill="#FF9F68"/>
</svg>
