<svg width="995" height="347" viewBox="0 0 995 347" fill="none" xmlns="http://www.w3.org/2000/svg">
<rect x="4.5" y="4.5" width="986" height="338" stroke="#FF9F68" stroke-width="9" stroke-dasharray="30 30"/>
<path d="M46.8674 157.5V59.366H124.151V157.5H110.39V71.32H60.6284V157.5H46.8674ZM150.031 157.5V59.366H186.032C195.114 59.366 202.481 62.1923 208.133 67.845C213.879 73.405 216.751 80.8183 216.751 90.085C216.751 99.3517 213.879 106.858 208.133 112.603C202.388 118.348 195.021 121.221 186.032 121.221H163.792V157.5H150.031ZM163.792 109.267H183.808C189.646 109.267 194.28 107.553 197.708 104.124C201.137 100.695 202.851 96.0157 202.851 90.085C202.851 84.247 201.137 79.66 197.708 76.324C194.372 72.988 189.785 71.32 183.947 71.32H163.792V109.267ZM233.92 157.5V59.366H247.681V123.028L246.847 137.345H247.125C250.368 131.229 253.148 126.41 255.465 122.889L298.972 59.366H312.455V157.5H298.833V93.838L299.667 79.521H299.389C296.239 85.4517 293.505 90.224 291.188 93.838L247.403 157.5H233.92ZM334.689 157.5L342.751 59.366H357.068L379.725 112.464L384.451 125.669H384.729C386.489 120.48 388.111 116.078 389.594 112.464L412.251 59.366H426.568L434.491 157.5H420.869L416.143 95.645L415.865 81.189H415.587C413.548 87.2123 411.787 92.031 410.305 95.645L390.706 139.847H378.474L359.014 95.645L353.732 80.911H353.454C353.639 86.749 353.546 91.6603 353.176 95.645L348.45 157.5H334.689ZM456.673 157.5V59.366H513.802V71.32H470.434V102.039H505.601V113.993H470.434V145.546H516.165V157.5H456.673ZM535.132 157.5V59.366H571.133C580.214 59.366 587.581 62.1923 593.234 67.845C598.979 73.405 601.852 80.8183 601.852 90.085C601.852 99.3517 598.979 106.858 593.234 112.603C587.489 118.348 580.122 121.221 571.133 121.221H548.893V157.5H535.132ZM548.893 109.267H568.909C574.747 109.267 579.38 107.553 582.809 104.124C586.238 100.695 587.952 96.0157 587.952 90.085C587.952 84.247 586.238 79.66 582.809 76.324C579.473 72.988 574.886 71.32 569.048 71.32H548.893V109.267ZM609.291 157.5L631.253 120.943L634.172 116.356V116.078C627.963 113.854 623.283 110.286 620.133 105.375C617.075 100.464 615.546 94.6257 615.546 87.861C615.546 81.6523 616.936 76.324 619.716 71.876C622.496 67.428 626.249 64.1383 630.975 62.007C635.052 60.2463 641.168 59.366 649.323 59.366H679.625V157.5H665.864V118.441H647.794L624.72 157.5H609.291ZM646.96 106.765H665.864V71.32H650.296C644.55 71.32 640.288 72.0613 637.508 73.544C632.226 76.5093 629.585 81.467 629.585 88.417C629.585 94.0697 631.114 98.564 634.172 101.9C637.322 105.143 641.585 106.765 646.96 106.765ZM745.243 54.779C739.59 54.779 734.725 53.2037 730.648 50.053C726.663 46.8097 724.671 42.4543 724.671 36.987V34.902H735.513V36.848C735.513 39.7207 736.486 41.991 738.432 43.659C740.378 45.2343 742.648 46.022 745.243 46.022C747.93 46.022 750.247 45.2343 752.193 43.659C754.139 41.991 755.112 39.6743 755.112 36.709V34.902H765.815V36.987C765.815 42.4543 763.822 46.8097 759.838 50.053C755.853 53.2037 750.988 54.779 745.243 54.779ZM705.489 157.5V59.366H719.25V123.028L718.416 137.345H718.694C721.937 131.229 724.717 126.41 727.034 122.889L770.541 59.366H784.024V157.5H770.402V93.838L771.236 79.521H770.958C767.807 85.4517 765.073 90.224 762.757 93.838L718.972 157.5H705.489ZM832.945 157.5V71.32H799.168V59.366H880.344V71.32H846.567V157.5H832.945ZM895.528 157.5V59.366H952.657V71.32H909.289V102.039H944.456V113.993H909.289V145.546H955.02V157.5H895.528Z" fill="#F4F4F4"/>
<path d="M74.403 283.5L82.465 185.366H96.782L119.439 238.464L124.165 251.669H124.443C126.204 246.48 127.825 242.078 129.308 238.464L151.965 185.366H166.282L174.205 283.5H160.583L155.857 221.645L155.579 207.189H155.301C153.262 213.212 151.502 218.031 150.019 221.645L130.42 265.847H118.188L98.728 221.645L93.446 206.911H93.168C93.3533 212.749 93.2607 217.66 92.89 221.645L88.164 283.5H74.403ZM195.275 248.75V185.366H209.036V248.611C209.036 256.117 211.26 262.001 215.708 266.264C220.249 270.434 226.319 272.519 233.917 272.519C241.516 272.519 247.539 270.434 251.987 266.264C256.435 262.001 258.659 256.071 258.659 248.472V185.366H272.42V248.75C272.42 259.685 268.899 268.488 261.856 275.16C254.814 281.832 245.547 285.168 234.056 285.168C222.473 285.168 213.114 281.832 205.978 275.16C198.843 268.488 195.275 259.685 195.275 248.75ZM290.016 272.241L297.8 261.816C300.951 264.874 304.75 267.422 309.198 269.461C313.646 271.407 318.094 272.38 322.542 272.38C327.731 272.38 331.901 271.129 335.052 268.627C338.203 266.032 339.778 262.604 339.778 258.341C339.778 254.356 338.156 250.974 334.913 248.194C331.67 245.321 327.685 242.912 322.959 240.966C318.326 239.02 313.692 236.935 309.059 234.711C304.426 232.487 300.487 229.383 297.244 225.398C294.001 221.413 292.379 216.595 292.379 210.942C292.379 202.787 295.391 196.208 301.414 191.204C307.53 186.2 315.221 183.698 324.488 183.698C335.701 183.698 344.828 187.034 351.871 193.706L345.616 204.965C342.836 202.37 339.454 200.285 335.469 198.71C331.577 197.135 327.731 196.347 323.932 196.347C318.835 196.347 314.619 197.644 311.283 200.239C307.947 202.741 306.279 206.077 306.279 210.247C306.279 213.49 307.437 216.363 309.754 218.865C312.071 221.367 314.99 223.359 318.511 224.842C322.032 226.232 325.832 227.9 329.909 229.846C333.986 231.699 337.786 233.645 341.307 235.684C344.828 237.723 347.747 240.595 350.064 244.302C352.381 248.009 353.539 252.318 353.539 257.229C353.539 265.198 350.759 271.87 345.199 277.245C339.639 282.527 331.994 285.168 322.264 285.168C309.569 285.168 298.819 280.859 290.016 272.241ZM372.988 283.5V185.366H430.117V197.32H386.749V228.039H421.916V239.993H386.749V271.546H432.48V283.5H372.988ZM443.431 233.738C443.431 219.56 448.203 207.699 457.748 198.154C467.292 188.517 479.339 183.698 493.888 183.698C508.344 183.698 520.344 188.517 529.889 198.154C539.433 207.699 544.206 219.56 544.206 233.738C544.206 248.287 539.433 260.519 529.889 270.434C520.344 280.257 508.344 285.168 493.888 285.168C479.432 285.168 467.385 280.257 457.748 270.434C448.203 260.519 443.431 248.287 443.431 233.738ZM457.609 233.738C457.609 244.765 461.037 253.986 467.895 261.399C474.752 268.812 483.416 272.519 493.888 272.519C504.266 272.519 512.884 268.812 519.742 261.399C526.599 253.986 530.028 244.765 530.028 233.738C530.028 223.081 526.599 214.185 519.742 207.05C512.884 199.822 504.266 196.208 493.888 196.208C483.416 196.208 474.752 199.822 467.895 207.05C461.037 214.185 457.609 223.081 457.609 233.738ZM591.499 272.241L599.283 261.816C602.434 264.874 606.233 267.422 610.681 269.461C615.129 271.407 619.577 272.38 624.025 272.38C629.215 272.38 633.385 271.129 636.535 268.627C639.686 266.032 641.261 262.604 641.261 258.341C641.261 254.356 639.64 250.974 636.396 248.194C633.153 245.321 629.168 242.912 624.442 240.966C619.809 239.02 615.176 236.935 610.542 234.711C605.909 232.487 601.971 229.383 598.727 225.398C595.484 221.413 593.862 216.595 593.862 210.942C593.862 202.787 596.874 196.208 602.897 191.204C609.013 186.2 616.705 183.698 625.971 183.698C637.184 183.698 646.312 187.034 653.354 193.706L647.099 204.965C644.319 202.37 640.937 200.285 636.952 198.71C633.06 197.135 629.215 196.347 625.415 196.347C620.319 196.347 616.102 197.644 612.766 200.239C609.43 202.741 607.762 206.077 607.762 210.247C607.762 213.49 608.921 216.363 611.237 218.865C613.554 221.367 616.473 223.359 619.994 224.842C623.516 226.232 627.315 227.9 631.392 229.846C635.47 231.699 639.269 233.645 642.79 235.684C646.312 237.723 649.231 240.595 651.547 244.302C653.864 248.009 655.022 252.318 655.022 257.229C655.022 265.198 652.242 271.87 646.682 277.245C641.122 282.527 633.477 285.168 623.747 285.168C611.052 285.168 600.303 280.859 591.499 272.241ZM662.543 283.5L697.71 185.366H712.305L747.473 283.5H733.295L723.425 255.283H686.451L676.582 283.5H662.543ZM690.065 243.885H719.811L708.969 212.888L705.077 198.849H704.799C703.409 204.78 702.158 209.459 701.046 212.888L690.065 243.885ZM762.432 283.5V185.366H776.054L819.839 249.028L827.901 263.345H828.179C827.623 257.507 827.345 252.735 827.345 249.028V185.366H840.967V283.5H827.484L783.699 219.838L775.637 205.521H775.359C775.915 211.359 776.193 216.131 776.193 219.838V283.5H762.432ZM859.726 272.241L867.51 261.816C870.661 264.874 874.46 267.422 878.908 269.461C883.356 271.407 887.804 272.38 892.252 272.38C897.441 272.38 901.611 271.129 904.762 268.627C907.913 266.032 909.488 262.604 909.488 258.341C909.488 254.356 907.866 250.974 904.623 248.194C901.38 245.321 897.395 242.912 892.669 240.966C888.036 239.02 883.402 236.935 878.769 234.711C874.136 232.487 870.197 229.383 866.954 225.398C863.711 221.413 862.089 216.595 862.089 210.942C862.089 202.787 865.101 196.208 871.124 191.204C877.24 186.2 884.931 183.698 894.198 183.698C905.411 183.698 914.538 187.034 921.581 193.706L915.326 204.965C912.546 202.37 909.164 200.285 905.179 198.71C901.287 197.135 897.441 196.347 893.642 196.347C888.545 196.347 884.329 197.644 880.993 200.239C877.657 202.741 875.989 206.077 875.989 210.247C875.989 213.49 877.147 216.363 879.464 218.865C881.781 221.367 884.7 223.359 888.221 224.842C891.742 226.232 895.542 227.9 899.619 229.846C903.696 231.699 907.496 233.645 911.017 235.684C914.538 237.723 917.457 240.595 919.774 244.302C922.091 248.009 923.249 252.318 923.249 257.229C923.249 265.198 920.469 271.87 914.909 277.245C909.349 282.527 901.704 285.168 891.974 285.168C879.279 285.168 868.529 280.859 859.726 272.241Z" fill="#FF9F68"/>
</svg>
