<svg width="467" height="863" viewBox="0 0 467 863" fill="none" xmlns="http://www.w3.org/2000/svg">
<path d="M255.729 583.31C261.801 590.659 268.794 594.269 276.345 594.831C283.92 595.394 292.129 592.894 300.614 587.878C317.591 577.84 335.501 557.827 351.319 532.799C353.591 529.206 356.268 525.849 359.437 522.985C369.334 514.041 378.969 506.095 387.419 498.818C395.882 491.53 403.155 484.913 408.386 478.59C413.619 472.262 416.753 466.293 417.041 460.303C417.327 454.339 414.797 448.232 408.43 441.604C400.793 434.553 393.891 431.742 387.12 431.915C380.32 432.089 373.541 435.274 366.162 440.451C358.783 445.628 350.882 452.738 341.82 460.684C332.77 468.621 322.585 477.368 310.68 485.771C310.159 486.139 309.599 486.464 309.027 486.739C285.837 497.86 265.545 512.523 254.549 529.152C249.055 537.46 245.893 546.24 245.825 555.307C245.756 564.365 248.776 573.76 255.729 583.31Z" stroke="#F4F4F4" stroke-width="1.12898" stroke-linecap="round"/>
<path d="M259.957 580.592C265.307 587.089 271.71 589.859 278.785 589.671C285.897 589.482 293.748 586.302 301.932 580.768C318.299 569.7 335.803 549.349 351.077 525.472C353.307 521.985 355.927 518.723 359.028 515.949C368.079 507.852 376.812 500.93 384.457 494.721C392.112 488.503 398.66 483.012 403.392 477.751C408.126 472.487 410.978 467.522 411.349 462.366C411.717 457.237 409.639 451.79 404.225 445.531C397.33 439.806 390.868 437.865 384.389 438.585C377.866 439.31 371.244 442.737 364.077 447.917C356.911 453.095 349.268 459.972 340.684 467.529C332.109 475.077 322.614 483.286 311.781 491.089C311.137 491.553 310.434 491.948 309.714 492.267C287.569 502.09 269.203 515.979 259.351 531.514C254.429 539.276 251.64 547.433 251.547 555.695C251.455 563.944 254.05 572.339 259.957 580.592Z" stroke="#F4F4F4" stroke-width="1.12898" stroke-linecap="round"/>
<path d="M308.983 492.602L319.726 492.987M356.652 476.583L332.093 491.964C330.882 492.722 329.479 493.115 328.05 493.096L319.726 492.987M319.726 492.987L354.104 470.169M332.587 501.212L361.038 482.629M356.844 453.685C347.354 466.903 361.151 493.599 387.001 492.614" stroke="#F4F4F4" stroke-width="1.12898" stroke-linecap="round"/>
<path d="M301.423 567.942C305.493 572.315 312.841 572.234 317.847 567.575C322.852 562.916 323.46 555.592 319.39 551.219C315.32 546.845 307.971 546.927 302.965 551.586C297.959 556.245 297.352 563.569 301.423 567.942Z" stroke="#F4F4F4" stroke-width="1.12898" stroke-linecap="round"/>
<path d="M308.874 575.894C303.34 576.891 298.057 575.072 294.682 571.446C288.326 564.617 290.481 552.281 299.495 543.891C308.509 535.502 317.98 534.993 325.38 541.951C328.617 545.429 330.431 547.984 330.951 553.5" stroke="#F4F4F4" stroke-width="1.12898" stroke-linecap="round"/>
<path d="M298.095 583.157C293.193 579.874 288.372 574.088 286.686 567.812C283.669 558.621 285.187 546.593 294.201 538.204C303.215 529.814 315.284 527.811 324.52 532.598C328.979 534.91 336.434 540.551 336.953 546.067" stroke="#F4F4F4" stroke-width="1.12898" stroke-linecap="round"/>
<path d="M287.875 587.936C282.777 583.45 277.954 576.685 276.359 569.117C273.346 558.077 276.113 543.964 287.935 532.961C299.757 521.958 312.96 521.668 323.591 525.157C329.187 526.993 339.026 534.908 341.49 539.538" stroke="#F4F4F4" stroke-width="1.12898" stroke-linecap="round"/>
<path d="M279.696 589.669C273.761 584.514 270.763 576.342 269.164 569.815C265.97 556.769 269.061 539.682 283.628 526.124C298.195 512.566 314.166 512.906 326.764 516.666C333.396 518.645 344.258 526.184 347.034 531.61" stroke="#F4F4F4" stroke-width="1.12898" stroke-linecap="round"/>
<path d="M272.781 589.183C266.138 583.466 263.226 575.037 261.561 567.656C258.235 552.902 261.285 533.088 280.562 518.595C290.88 510.838 311.297 501.526 328.096 506.197C335.61 508.286 350.066 516.051 353.1 522.153" stroke="#F4F4F4" stroke-width="1.12898" stroke-linecap="round"/>
<path d="M370.964 475.064C375.93 480.4 384.776 480.359 390.731 474.817C396.685 469.275 397.36 460.455 392.394 455.119C387.427 449.783 378.581 449.824 372.627 455.366C366.672 460.908 365.998 469.728 370.964 475.064Z" stroke="#F4F4F4" stroke-width="1.12898" stroke-linecap="round"/>
<path d="M367.502 478.287C375.027 486.37 388.039 486.552 396.57 478.612C405.101 470.672 405.853 457.679 398.329 449.595C390.804 441.511 377.791 441.329 369.26 449.27C360.729 457.21 359.978 470.202 367.502 478.287Z" stroke="#F4F4F4" stroke-width="1.12898" stroke-linecap="round"/>
<path d="M38.7451 824.328C46.955 829.173 54.759 830.19 62.0511 828.15C69.3661 826.103 76.2353 820.96 82.5076 813.357C95.0582 798.143 105.094 773.231 111.456 744.316C112.37 740.164 113.746 736.096 115.752 732.325C122.016 720.548 128.375 709.799 133.846 700.081C139.325 690.35 143.914 681.654 146.682 673.928C149.451 666.198 150.368 659.519 148.601 653.788C146.842 648.082 142.385 643.2 134.144 639.133C124.563 635.1 117.117 634.804 110.808 637.27C104.473 639.747 99.1818 645.047 94.0036 652.425C88.8256 659.803 83.8135 669.177 77.995 679.732C72.1834 690.273 65.5816 701.963 57.2444 713.914C56.8791 714.437 56.4633 714.934 56.0186 715.387C37.9941 733.732 23.8996 754.422 19.2149 773.801C16.8747 783.481 16.8872 792.814 19.9068 801.363C22.9235 809.905 28.9585 817.713 38.7451 824.328Z" stroke="#F4F4F4" stroke-width="1.12898" stroke-linecap="round"/>
<path d="M41.796 820.333C49.037 824.624 56.0002 825.05 62.5897 822.467C69.2133 819.87 75.5144 814.21 81.3281 806.222C92.9546 790.247 102.493 765.156 108.735 737.507C109.646 733.47 111 729.51 112.973 725.847C118.731 715.155 124.589 705.675 129.665 697.236C134.75 688.785 139.04 681.394 141.7 674.837C144.361 668.278 145.354 662.639 143.949 657.664C142.551 652.715 138.744 648.3 131.524 644.255C123.093 641.216 116.356 641.59 110.508 644.47C104.62 647.37 99.5596 652.846 94.5811 660.155C89.6042 667.461 84.7556 676.528 79.2533 686.554C73.7572 696.568 67.6208 707.518 60.0877 718.54C59.6394 719.196 59.1133 719.805 58.5443 720.351C41.0604 737.121 28.5138 756.429 24.5331 774.388C22.5443 783.361 22.6965 791.98 25.4196 799.781C28.1388 807.57 33.4339 814.582 41.796 820.333Z" stroke="#F4F4F4" stroke-width="1.12898" stroke-linecap="round"/>
<path d="M57.9716 720.914L68.2046 717.623M97.3494 689.636L79.4861 712.454C78.6055 713.579 77.4195 714.426 76.0699 714.894L68.2046 717.623M68.2046 717.623L92.7717 684.472M83.0963 720.983L103.53 693.831M89.7422 668.039C85.3132 683.696 107.368 704.108 131.342 694.389" stroke="#F4F4F4" stroke-width="1.12898" stroke-linecap="round"/>
<path d="M76.4863 794.336C81.8013 797.064 88.6834 794.488 91.8061 788.404C94.9288 782.32 93.0094 775.227 87.6946 772.499C82.3794 769.77 75.4962 772.346 72.3735 778.431C69.2509 784.515 71.1713 791.608 76.4863 794.336Z" stroke="#F4F4F4" stroke-width="1.12898" stroke-linecap="round"/>
<path d="M86.1993 799.28C81.3348 802.099 75.7483 802.186 71.341 799.924C63.0417 795.664 60.8719 783.33 66.4947 772.375C72.1175 761.42 80.8515 757.72 90.1764 761.746C94.403 763.916 96.9786 765.701 99.3431 770.712" stroke="#F4F4F4" stroke-width="1.12898" stroke-linecap="round"/>
<path d="M78.5341 809.775C72.8075 808.355 66.3065 804.554 62.5858 799.226C56.6224 791.609 53.9595 779.782 59.5823 768.826C65.2051 757.871 75.8734 751.882 86.1869 753.243C91.1658 753.9 100.095 756.669 102.46 761.68" stroke="#F4F4F4" stroke-width="1.12898" stroke-linecap="round"/>
<path d="M70.5479 817.744C64.2285 815.26 57.3925 810.538 53.3183 803.964C46.7294 794.607 44.531 780.395 51.9056 766.027C59.2802 751.658 71.5976 746.895 82.7816 746.56C88.6686 746.383 100.613 750.48 104.505 753.996" stroke="#F4F4F4" stroke-width="1.12898" stroke-linecap="round"/>
<path d="M63.4445 822.155C56.1097 819.326 50.5113 812.661 46.7881 807.067C39.347 795.885 36.442 778.766 45.5289 761.062C54.6157 743.357 69.7504 738.244 82.8761 737.495C89.7851 737.1 102.564 740.495 107.02 744.654" stroke="#F4F4F4" stroke-width="1.12898" stroke-linecap="round"/>
<path d="M56.7766 824.049C48.5851 820.932 42.9797 813.996 38.9037 807.621C30.7576 794.878 26.8864 775.208 40.0849 755.022C47.1489 744.218 63.1816 728.517 80.5676 727.196C88.344 726.605 104.58 728.99 109.508 733.696" stroke="#F4F4F4" stroke-width="1.12898" stroke-linecap="round"/>
<path d="M110.293 683.342C116.778 686.67 125.083 683.623 128.797 676.386C132.512 669.149 130.146 660.625 123.661 657.296C117.176 653.968 108.872 657.015 105.157 664.252C101.443 671.489 103.808 680.013 110.293 683.342Z" stroke="#F4F4F4" stroke-width="1.12898" stroke-linecap="round"/>
<path d="M108.133 687.55C117.958 692.593 130.256 688.338 135.578 677.97C140.9 667.601 137.188 655.128 127.363 650.085C117.537 645.042 105.238 649.297 99.9163 659.666C94.5948 670.035 98.3079 682.507 108.133 687.55Z" stroke="#F4F4F4" stroke-width="1.12898" stroke-linecap="round"/>
<path d="M440.903 612.999C435.922 604.871 434.775 597.085 436.693 589.76C438.618 582.412 443.645 575.457 451.143 569.059C466.145 556.256 490.886 545.806 519.691 538.963C523.827 537.98 527.871 536.536 531.608 534.467C543.279 528.007 553.921 521.47 563.546 515.838C573.185 510.197 581.803 505.463 589.481 502.567C597.164 499.669 603.827 498.642 609.587 500.312C615.321 501.976 620.277 506.351 624.481 514.523C628.673 524.035 629.093 531.475 626.733 537.824C624.362 544.2 619.151 549.579 611.86 554.879C604.57 560.18 595.281 565.347 584.825 571.341C574.382 577.328 562.804 584.124 550.994 592.659C550.476 593.033 549.987 593.457 549.541 593.91C531.499 612.238 511.047 626.675 491.749 631.683C482.109 634.184 472.778 634.328 464.179 631.451C455.589 628.577 447.681 622.673 440.903 612.999Z" stroke="#F4F4F4" stroke-width="1.12898" stroke-linecap="round"/>
<path d="M444.847 609.882C440.436 602.713 439.894 595.758 442.367 589.127C444.852 582.461 450.406 576.066 458.296 570.12C474.076 558.228 499.004 548.272 526.544 541.57C530.566 540.592 534.502 539.172 538.132 537.138C548.727 531.203 558.108 525.188 566.46 519.971C574.825 514.746 582.144 510.333 588.656 507.564C595.17 504.794 600.791 503.707 605.789 505.029C610.76 506.343 615.239 510.077 619.403 517.228C622.582 525.607 622.322 532.349 619.539 538.245C616.737 544.18 611.347 549.331 604.122 554.431C596.9 559.529 587.915 564.529 577.983 570.197C568.061 575.86 557.216 582.178 546.321 589.894C545.673 590.353 545.072 590.89 544.536 591.468C528.06 609.229 508.964 622.096 491.074 626.376C482.135 628.514 473.515 628.506 465.67 625.913C457.836 623.324 450.737 618.147 444.847 609.882Z" stroke="#F4F4F4" stroke-width="1.12898" stroke-linecap="round"/>
<path d="M470.262 574.761C467.446 569.493 469.906 562.569 475.937 559.345C481.968 556.121 489.093 557.922 491.909 563.19C494.726 568.459 492.265 575.384 486.234 578.608C480.203 581.832 473.078 580.03 470.262 574.761Z" stroke="#F4F4F4" stroke-width="1.12898" stroke-linecap="round"/>
<path d="M465.157 565.135C462.419 570.046 462.426 575.633 464.761 580.002C469.158 588.23 481.527 590.193 492.387 584.388C503.247 578.583 506.8 569.789 502.619 560.533C500.379 556.343 498.551 553.797 493.501 551.517" stroke="#F4F4F4" stroke-width="1.12898" stroke-linecap="round"/>
<path d="M454.791 572.975C456.306 578.677 460.216 585.114 465.605 588.745C473.32 594.581 485.191 597.046 496.051 591.241C506.91 585.436 512.721 574.669 511.188 564.38C510.448 559.413 507.53 550.531 502.481 548.25" stroke="#F4F4F4" stroke-width="1.12898" stroke-linecap="round"/>
<path d="M446.957 581.09C449.547 587.367 454.381 594.123 461.023 598.087C470.488 604.519 484.735 606.48 498.979 598.866C513.222 591.253 517.779 578.858 517.927 567.67C518.006 561.781 513.71 549.906 510.13 546.074" stroke="#F4F4F4" stroke-width="1.12898" stroke-linecap="round"/>
<path d="M442.663 588.267C445.614 595.554 452.372 601.04 458.027 604.67C469.332 611.923 486.497 614.542 504.047 605.161C521.597 595.78 526.457 580.562 526.987 567.426C527.266 560.511 523.659 547.791 519.426 543.405" stroke="#F4F4F4" stroke-width="1.12898" stroke-linecap="round"/>
<path d="M440.881 594.964C444.133 603.102 451.162 608.591 457.604 612.56C470.482 620.493 490.213 624.035 510.176 610.501C520.861 603.258 536.292 586.966 537.323 569.56C537.784 561.775 535.129 545.581 530.341 540.732" stroke="#F4F4F4" stroke-width="1.12898" stroke-linecap="round"/>
<path d="M191.342 829.836C184.537 823.16 181.535 815.886 181.618 808.314C181.702 800.718 184.892 792.752 190.612 784.725C202.059 768.664 223.524 752.523 249.807 738.892C253.581 736.935 257.153 734.553 260.277 731.639C270.031 722.54 278.768 713.616 286.738 705.816C294.72 698.005 301.932 691.321 308.678 686.648C315.428 681.972 321.642 679.358 327.635 679.581C333.601 679.803 339.471 682.844 345.532 689.752C351.908 697.962 354.121 705.078 353.372 711.81C352.62 718.571 348.87 725.053 343.083 731.965C337.297 738.876 329.54 746.144 320.851 754.496C312.173 762.838 302.591 772.241 293.205 783.387C292.794 783.875 292.422 784.406 292.1 784.952C279.045 807.111 262.708 826.081 245.203 835.622C236.458 840.388 227.441 842.792 218.401 842.088C209.37 841.385 200.266 837.577 191.342 829.836Z" stroke="#F4F4F4" stroke-width="1.12898" stroke-linecap="round"/>
<path d="M194.411 825.854C188.392 819.971 186.178 813.355 186.968 806.321C187.761 799.252 191.597 791.7 197.809 784.017C210.23 768.651 231.996 752.943 257.087 739.758C260.751 737.832 264.225 735.499 267.253 732.646C276.091 724.316 283.731 716.205 290.568 709.116C297.415 702.018 303.444 695.961 309.089 691.694C314.736 687.426 319.926 685.007 325.095 685.076C330.236 685.145 335.487 687.68 341.262 693.608C346.38 700.964 347.763 707.568 346.495 713.962C345.217 720.401 341.239 726.706 335.467 733.407C329.698 740.105 322.195 747.136 313.935 755.045C305.685 762.946 296.697 771.708 288.001 781.837C287.483 782.44 287.03 783.106 286.65 783.797C274.978 805.026 259.576 822.142 243.259 830.636C235.107 834.88 226.741 836.964 218.502 836.353C210.274 835.742 202.131 832.443 194.411 825.854Z" stroke="#F4F4F4" stroke-width="1.12898" stroke-linecap="round"/>
<path d="M286.255 784.499L286.785 773.763M306.274 738.367L288.858 761.528C287.999 762.67 287.488 764.034 287.385 765.459L286.785 773.763M286.785 773.763L312.447 741.452M279.685 760.248L300.623 733.483M329.104 740.125C315.127 748.456 289.702 732.436 292.884 706.763" stroke="#F4F4F4" stroke-width="1.12898" stroke-linecap="round"/>
<path d="M210.544 785.618C206.533 781.19 207.24 773.876 212.308 769.285C217.376 764.694 224.725 764.712 228.736 769.139C232.747 773.567 232.04 780.883 226.972 785.474C221.903 790.065 214.555 790.046 210.544 785.618Z" stroke="#F4F4F4" stroke-width="1.12898" stroke-linecap="round"/>
<path d="M203.254 777.518C201.79 782.947 203.153 788.365 206.478 792.037C212.741 798.951 225.217 797.854 234.343 789.587C243.469 781.32 244.782 771.926 238.479 763.961C235.29 760.44 232.899 758.415 227.446 757.428" stroke="#F4F4F4" stroke-width="1.12898" stroke-linecap="round"/>
<path d="M195.102 787.639C197.956 792.803 203.311 798.098 209.42 800.313C218.321 804.102 230.434 803.612 239.561 795.346C248.687 787.079 251.711 775.224 247.727 765.614C245.803 760.975 240.817 753.066 235.365 752.079" stroke="#F4F4F4" stroke-width="1.12898" stroke-linecap="round"/>
<path d="M189.471 797.414C193.506 802.875 199.836 808.255 207.241 810.489C217.985 814.431 232.282 812.876 244.251 802.034C256.221 791.191 257.634 778.061 255.062 767.171C253.709 761.439 246.66 750.962 242.257 748.113" stroke="#F4F4F4" stroke-width="1.12898" stroke-linecap="round"/>
<path d="M187.047 805.415C191.679 811.767 199.565 815.45 205.933 817.598C218.66 821.891 235.947 820.266 250.696 806.906C265.445 793.546 266.466 777.604 263.792 764.732C262.385 757.956 255.798 746.492 250.628 743.264" stroke="#F4F4F4" stroke-width="1.12898" stroke-linecap="round"/>
<path d="M186.945 812.346C192.075 819.452 200.226 823.071 207.439 825.358C221.856 829.928 241.858 828.576 257.939 810.602C266.546 800.982 277.562 781.432 274.338 764.296C272.896 756.632 266.39 741.567 260.569 738.025" stroke="#F4F4F4" stroke-width="1.12898" stroke-linecap="round"/>
<path d="M309.006 724.233C304.112 718.831 304.906 710.021 310.935 704.56C316.964 699.099 325.809 699.177 330.703 704.58C335.597 709.982 334.803 718.792 328.774 724.253C322.745 729.715 313.899 729.636 309.006 724.233Z" stroke="#F4F4F4" stroke-width="1.12898" stroke-linecap="round"/>
<path d="M305.5 727.409C298.086 719.224 299.013 706.244 307.65 698.419C316.288 690.595 329.297 690.952 336.711 699.137C344.126 707.322 343.199 720.303 334.561 728.128C325.923 735.952 312.914 735.594 305.5 727.409Z" stroke="#F4F4F4" stroke-width="1.12898" stroke-linecap="round"/>
</svg>
