<svg width="377" height="397" viewBox="0 0 377 397" fill="none" xmlns="http://www.w3.org/2000/svg">
<path d="M35.0747 290.763C41.1662 319.613 55.3455 339.444 75.5979 351.552C95.8752 363.675 122.314 368.1 152.976 365.973C214.309 361.718 292.303 331.267 370.977 284.34C375.239 281.798 379.87 279.785 384.673 278.5C424.747 267.784 462.786 259.701 496.768 251.898C530.767 244.092 560.692 236.569 584.606 226.969C608.526 217.367 626.33 205.725 636.195 189.744C646.039 173.795 648.049 153.398 640.105 126.101C629.521 96.445 614.878 79.0841 596.233 69.9888C577.557 60.8789 554.752 60.0035 527.727 63.5737C500.702 67.144 469.57 75.1406 434.269 83.683C398.985 92.2214 359.573 101.295 316.054 106.989C315.318 107.085 314.562 107.119 313.822 107.091C236.315 104.178 161.33 114.777 108.38 143.78C81.9147 158.277 60.9767 177.358 47.9614 201.627C34.9517 225.886 29.8293 255.38 35.0747 290.763Z" stroke="#FF9F68" stroke-width="1.31555" stroke-linecap="round"/>
<path d="M50.0984 289.437C55.4528 315.006 69.2921 331.733 89.3679 341.12C109.487 350.527 135.931 352.589 166.495 348.66C227.618 340.802 304.933 309.016 380.298 264.739C384.463 262.292 388.975 260.352 393.654 259.111C430.367 249.371 464.609 242.701 494.925 236.608C525.256 230.512 551.63 224.998 572.672 217.57C593.719 210.141 609.319 200.833 618.21 187.225C627.08 173.648 629.355 155.659 623.463 130.663C612.97 105.49 598.215 91.0679 579.551 83.8696C560.837 76.6524 538.105 76.6616 511.611 80.5487C485.12 84.4355 454.968 92.1811 421.433 100.362C387.912 108.54 351.041 117.145 311.17 122.725C310.255 122.853 309.315 122.882 308.396 122.819C235.323 117.777 166.417 128.967 117.957 156.662C93.7336 170.506 74.6369 188.463 62.663 210.562C50.6948 232.651 45.8189 258.919 50.0984 289.437Z" stroke="#FF9F68" stroke-width="1.31555" stroke-linecap="round"/>
<path d="M303.846 123.586L331.862 139.557M452.83 147.332L362.152 154.353C360.493 154.481 358.831 154.129 357.367 153.337L331.862 139.557M331.862 139.557L454.982 126.739M354.601 179.311L456.075 169.504M485.199 86.7412C441.585 108.667 441.112 198.818 511.19 232.167" stroke="#FF9F68" stroke-width="1.31555" stroke-linecap="round"/>
<path d="M177.924 313.586C182.837 331.526 203.129 341.728 223.361 336.187C243.593 330.647 255.857 311.529 250.944 293.59C246.031 275.65 225.738 265.448 205.506 270.988C185.275 276.529 173.012 295.646 177.924 313.586Z" stroke="#FF9F68" stroke-width="1.31555" stroke-linecap="round"/>
<path d="M187.665 344.814C171.572 339.765 160.061 327.581 156.135 313.247C148.744 286.254 171.635 256.463 207.265 246.706C242.895 236.949 268.777 248.775 278.762 277.564C282.527 291.31 283.795 300.626 277.5 316.01" stroke="#FF9F68" stroke-width="1.31555" stroke-linecap="round"/>
<path d="M148.916 349.122C140.454 333.576 135.692 311.49 139.941 292.463C144.709 263.837 165.481 233.981 201.111 224.224C236.741 214.467 271.606 225.934 289.493 251.509C298.128 263.855 310.094 289.222 303.799 304.606" stroke="#FF9F68" stroke-width="1.31555" stroke-linecap="round"/>
<path d="M115.103 347.6C107.795 328.585 104.389 303.895 110.679 281.561C118.031 248.024 145.019 214.364 191.75 201.567C238.481 188.77 273.976 206.37 297.378 230.434C309.696 243.101 324.836 277.828 324.941 293.561" stroke="#FF9F68" stroke-width="1.31555" stroke-linecap="round"/>
<path d="M90.9503 340.827C82.3478 318.867 85.7497 292.977 90.5824 273.405C100.245 234.286 132.232 193.173 189.813 177.405C247.393 161.637 289.371 184.761 317.623 212.281C332.495 226.768 350.876 261.918 350.704 280.202" stroke="#FF9F68" stroke-width="1.31555" stroke-linecap="round"/>
<path d="M73.2519 329.912C63.5491 305.474 67.5368 279.02 73.3826 257.085C85.07 213.242 120.744 164.824 192.145 153.124C230.36 146.862 297.582 150.52 335.733 186.307C352.797 202.314 380.417 243.066 379.991 263.503" stroke="#FF9F68" stroke-width="1.31555" stroke-linecap="round"/>
</svg>
