<svg width="385" height="336" viewBox="0 0 385 336" fill="none" xmlns="http://www.w3.org/2000/svg">
<path d="M-256.296 207.68C-262.676 178.892 -257.964 154.973 -244.529 135.575C-231.078 116.154 -208.834 101.195 -180.035 90.4551C-122.43 68.9728 -38.8243 64.4557 52.2125 74.6589C57.1442 75.2116 62.1932 75.1298 67.0974 74.3137C108.016 67.5045 145.994 59.138 180.162 52.1936C214.347 45.246 244.705 39.724 270.448 38.5784C296.198 37.4326 317.223 40.6724 332.811 51.1454C348.369 61.5976 358.632 79.339 362.683 107.479C365.307 138.857 359.151 160.718 345.934 176.709C332.695 192.725 312.292 202.95 286.208 210.872C260.125 218.793 228.472 224.383 192.798 231.199C157.14 238.011 117.503 246.043 75.5231 258.851C74.8131 259.067 74.1114 259.349 73.4486 259.68C4.08029 294.375 -68.5795 315.725 -128.783 311.207C-158.873 308.949 -185.827 300.231 -207.711 283.513C-229.586 266.803 -246.444 242.065 -256.296 207.68Z" stroke="#F4F4F4" stroke-width="1.31555" stroke-linecap="round"/>
<path d="M-242.068 202.675C-247.763 177.18 -242.077 156.229 -227.678 139.382C-213.248 122.499 -190.022 109.688 -160.568 100.63C-101.665 82.5153 -18.1253 79.494 68.8024 88.6528C73.6072 89.159 78.5167 89.0596 83.2903 88.2555C120.746 81.9458 154.682 73.8631 184.805 66.8779C214.943 59.8892 241.237 54.0064 263.467 52.0704C285.703 50.1341 303.756 52.1595 317.478 60.8747C331.167 69.5693 340.675 85.0086 345.644 110.205C346.496 137.464 339.024 156.695 325.006 170.966C310.95 185.274 290.247 194.664 264.516 202.078C238.788 209.491 208.132 214.903 174.214 221.318C140.312 227.73 103.182 235.138 64.5703 246.541C63.6845 246.803 62.8163 247.165 62.0057 247.602C-2.44548 282.403 -69.8137 300.702 -125.388 295.519C-153.168 292.928 -177.98 284.472 -198.019 269.3C-218.048 254.135 -233.348 232.233 -242.068 202.675Z" stroke="#F4F4F4" stroke-width="1.31555" stroke-linecap="round"/>
<path d="M57.5454 248.785L76.4526 222.661M183.385 165.57L97.9163 196.665C96.3521 197.234 94.985 198.242 93.9788 199.568L76.4526 222.661M76.4526 222.661L193.857 183.431M80.7218 177.062L177.173 144.04M237.907 207.358C189.13 205.425 151.43 123.534 201.451 64.197" stroke="#F4F4F4" stroke-width="1.31555" stroke-linecap="round"/>
<path d="M-176.766 107.477C-178.044 125.131 -173.248 147.209 -161.514 162.777C-145.338 186.871 -114.081 205.469 -77.6047 199.623C-41.1284 193.777 -14.1229 168.921 -8.40947 138.24C-5.65127 123.428 -5.24238 95.3837 -17.3343 83.9784" stroke="#F4F4F4" stroke-width="1.31555" stroke-linecap="round"/>
<path d="M-206.924 122.842C-205.718 143.176 -198.611 167.066 -183.651 184.801C-163.092 212.299 -124.602 231.79 -76.7612 224.123C-28.9206 216.456 -3.87731 185.756 7.4829 154.169C13.4627 137.543 12.8906 99.6636 6.48214 85.2947" stroke="#F4F4F4" stroke-width="1.31555" stroke-linecap="round"/>
<path d="M-226.116 138.994C-224.87 162.546 -211.069 184.713 -198.578 200.536C-173.607 232.162 -127.484 256.372 -68.5361 246.924C-9.58792 237.477 19.0746 199.067 33.4219 162.328C40.9741 142.99 43.1793 103.385 35.4637 86.8078" stroke="#F4F4F4" stroke-width="1.31555" stroke-linecap="round"/>
<path d="M-237.719 156.249C-236.451 182.512 -221.883 204.951 -207.492 222.507C-178.724 257.596 -126.225 286.935 -56.3737 268.069C-18.9887 257.972 40.7073 226.85 60.6496 178.492C69.5694 156.863 77.8709 108.338 69.0339 89.9045" stroke="#F4F4F4" stroke-width="1.31555" stroke-linecap="round"/>
<path d="M212.359 134.676C208.794 112.431 225.7 91.1219 250.27 87.1843C274.839 83.2468 297.558 98.2055 301.123 120.451C304.688 142.696 287.782 164.004 263.212 167.942C238.643 171.879 215.925 156.921 212.359 134.676Z" stroke="#F4F4F4" stroke-width="1.31555" stroke-linecap="round"/>
<path d="M198.35 136.922C193.009 103.597 217.024 71.9846 252.066 66.3686C287.108 60.7528 319.8 83.2769 325.14 116.602C330.481 149.927 306.466 181.538 271.424 187.154C236.382 192.77 203.691 170.247 198.35 136.922Z" stroke="#F4F4F4" stroke-width="1.31555" stroke-linecap="round"/>
</svg>
