<svg width="624" height="403" viewBox="0 0 624 403" fill="none" xmlns="http://www.w3.org/2000/svg">
<path d="M9.95013 190.386C4.95468 233.742 15.6147 268.228 38.4862 294.693C61.3793 321.183 96.5632 339.702 140.718 350.98C229.035 373.539 353.004 367.071 485.416 337.797C490.263 336.726 495.309 336.292 500.27 336.588C561.626 340.252 618.903 346.747 670.375 351.788C721.863 356.831 767.53 360.419 805.727 358.283C843.932 356.148 874.558 348.291 896.045 330.543C917.502 312.82 929.959 285.137 931.625 243.081C930.7 196.673 918.34 165.512 896.466 144.042C874.568 122.548 843.046 110.674 803.605 103.043C764.164 95.4116 716.918 92.0419 663.628 87.4768C610.354 82.9132 551.08 77.1571 487.654 64.7486C486.926 64.6062 486.199 64.399 485.505 64.1372C378.628 23.7982 268.88 3.48374 181.287 19.2089C137.501 27.0697 99.2748 43.9314 69.6987 71.7734C40.1289 99.6096 19.1612 138.462 9.95013 190.386Z" stroke="#F4F4F4" stroke-width="1.31555" stroke-linecap="round"/>
<path d="M31.5341 195.533C27.0367 233.973 38.6912 263.966 62.6092 286.541C86.5626 309.15 122.866 324.362 167.718 333.077C257.419 350.505 381.031 341.888 507.477 314.843C512.203 313.832 517.112 313.43 521.942 313.725C578.185 317.16 629.513 323.841 675.063 329.55C720.627 335.26 760.381 339.992 793.535 339.552C826.694 339.111 853.13 333.494 872.138 318.611C891.114 303.753 902.809 279.559 906.273 241.677C903.38 201.539 889.472 174.425 866.672 155.599C843.831 136.74 811.995 126.138 773.138 119.199C734.284 112.26 688.511 108.997 637.839 104.751C587.183 100.506 531.66 95.2793 473.368 84.4071C472.461 84.2378 471.56 83.9682 470.708 83.6156C370.981 42.3243 269.413 25.6514 188.671 41.643C148.308 49.6372 113.17 65.7899 86.0555 91.0894C58.9494 116.381 39.826 150.846 31.5341 195.533Z" stroke="#F4F4F4" stroke-width="1.31555" stroke-linecap="round"/>
<path d="M463.308 82.6106L494.944 117.971M660.101 185.285L529.136 152.463C527.522 152.058 526.058 151.197 524.92 149.982L494.944 117.971M494.944 117.971L672.715 157.556M508.115 184.054L654.279 217.736M733.547 115.853C662.458 126.088 619.719 251.654 701.932 330.896" stroke="#F4F4F4" stroke-width="1.31555" stroke-linecap="round"/>
<path d="M198.614 288.921C197.083 316.448 220.8 340.272 251.753 341.993C282.707 343.714 308.919 322.666 310.45 295.139C311.98 267.612 288.262 243.788 257.309 242.067C226.356 240.347 200.144 261.395 198.614 288.921Z" stroke="#F4F4F4" stroke-width="1.31555" stroke-linecap="round"/>
<path d="M197.938 337.059C177.839 322.501 167.466 300.128 168.679 278.295C170.965 237.183 216.811 206.3 271.08 209.317C325.348 212.335 355.941 240.917 356.436 285.747C355.271 306.684 352.693 320.275 336.729 338.802" stroke="#F4F4F4" stroke-width="1.31555" stroke-linecap="round"/>
<path d="M141.86 324.981C137.31 299.34 140.976 266.301 155.785 241.737C175.8 204.02 218.719 172.058 272.987 175.075C327.256 178.092 370.551 210.368 383.57 254.401C389.855 275.658 394.712 316.637 378.747 335.164" stroke="#F4F4F4" stroke-width="1.31555" stroke-linecap="round"/>
<path d="M95.393 307.075C94.0714 277.134 100.845 241.094 120.045 212.867C145.957 169.506 199.326 135.137 270.502 139.094C341.678 143.051 382.989 184.177 404.409 228.677C415.685 252.101 420.599 307.622 413.402 329.623" stroke="#F4F4F4" stroke-width="1.31555" stroke-linecap="round"/>
<path d="M64.8547 286.351C63.1019 251.695 79.9334 217.159 95.8122 192.106C127.554 142.033 191.376 99.6002 279.078 104.476C366.779 109.352 414.557 161.211 441.131 212.798C455.12 239.952 464.36 297.577 455.585 323.008" stroke="#F4F4F4" stroke-width="1.31555" stroke-linecap="round"/>
<path d="M45.2536 262.859C43.1222 224.233 61.0345 189.182 79.4298 161.305C116.202 105.588 188.578 54.681 293.665 71.685C349.909 80.7856 441.996 117.267 478.522 185.008C494.86 215.307 514.376 285.061 504.242 313.378" stroke="#F4F4F4" stroke-width="1.31555" stroke-linecap="round"/>
</svg>
