<svg width="659" height="745" viewBox="0 0 659 745" fill="none" xmlns="http://www.w3.org/2000/svg">
<path d="M582.267 168.792C604.992 206.052 609.785 241.828 600.128 275.448C590.462 309.098 566.294 340.67 530.946 369.434C460.244 426.966 345.001 473.109 212.524 502.092C207.675 503.153 202.913 504.876 198.534 507.227C144.377 536.296 95.1103 566.223 50.503 592.395C5.88179 618.576 -34.0654 640.993 -69.6341 655.081C-105.21 669.172 -136.306 674.89 -163.257 667.795C-190.17 660.71 -213.092 640.808 -232.25 603.331C-250.882 560.817 -252.736 527.346 -241.889 498.68C-231.03 469.982 -207.399 445.977 -174.799 422.502C-142.199 399.027 -100.726 376.145 -54.269 349.643C-7.82656 323.148 43.5632 293.054 95.9302 255.179C96.5313 254.744 97.1046 254.251 97.6244 253.722C177.714 172.263 268.811 107.776 354.92 85.2989C397.964 74.063 439.737 73.3304 478.265 86.194C516.786 99.055 552.12 125.525 582.267 168.792Z" stroke="#FF9F68" stroke-width="1.31555" stroke-linecap="round"/>
<path d="M564.834 182.521C585.045 215.527 587.05 247.642 574.811 278.169C562.553 308.742 535.983 337.782 498.925 364.511C424.814 417.967 308.994 462.009 182.868 490.513C178.154 491.578 173.529 493.272 169.268 495.566C119.657 522.282 75.8683 549.883 36.9172 574.176C-2.04722 598.476 -36.1473 619.452 -66.4262 632.962C-96.7101 646.474 -123.063 652.467 -146.562 646.933C-170.022 641.408 -190.788 624.354 -209.827 591.421C-224.041 553.772 -222.793 523.325 -209.996 496.67C-197.175 469.968 -172.724 446.987 -140.364 424.384C-108.007 401.784 -67.8274 379.618 -23.6129 354.503C20.5883 329.396 68.7948 301.356 117.146 267.029C117.898 266.495 118.603 265.872 119.228 265.195C192.428 185.871 277.628 128.122 357.629 108.761C397.622 99.0827 436.295 99.0019 471.522 110.59C506.739 122.175 538.558 145.437 564.834 182.521Z" stroke="#FF9F68" stroke-width="1.31555" stroke-linecap="round"/>
<path d="M125.524 261.178L111.643 306.549M-10.0309 436.946L95.078 352.204C96.3738 351.159 97.3411 349.763 97.8641 348.183L111.643 306.549M111.643 306.549L-33.115 417.069M127.414 372.06L8.86959 463.96M-105.831 404.736C-37.0075 384.2 54.4717 480.248 13.0927 586.671" stroke="#FF9F68" stroke-width="1.31555" stroke-linecap="round"/>
<path d="M452.355 337.393C465.293 361.737 453.761 393.314 426.386 407.863C399.011 422.412 366.386 414.304 353.447 389.96C340.509 365.615 352.042 334.038 379.417 319.489C406.792 304.94 439.416 313.048 452.355 337.393Z" stroke="#FF9F68" stroke-width="1.31555" stroke-linecap="round"/>
<path d="M473.165 380.805C485.301 359.157 485.33 334.496 475.068 315.187C455.744 278.828 401.171 270.031 353.176 295.539C305.181 321.047 289.404 359.828 307.764 400.728C317.606 419.245 325.648 430.5 347.913 440.619" stroke="#FF9F68" stroke-width="1.31555" stroke-linecap="round"/>
<path d="M519 346.313C512.373 321.128 495.183 292.677 471.434 276.592C437.441 250.754 385.073 239.748 337.078 265.256C289.083 290.764 263.325 338.227 269.982 383.659C273.195 405.592 285.981 444.827 308.245 454.947" stroke="#FF9F68" stroke-width="1.31555" stroke-linecap="round"/>
<path d="M553.668 310.563C542.304 282.83 521.035 252.957 491.763 235.392C450.049 206.903 387.185 198.098 324.237 231.553C261.289 265.008 241.046 319.672 240.272 369.053C239.865 395.046 258.7 447.505 274.464 464.457" stroke="#FF9F68" stroke-width="1.31555" stroke-linecap="round"/>
<path d="M572.692 278.938C559.743 246.745 529.974 222.457 505.049 206.379C455.228 174.244 379.491 162.505 301.928 203.727C224.365 244.95 202.755 312.07 200.277 370.046C198.972 400.564 214.762 456.748 233.397 476.151" stroke="#FF9F68" stroke-width="1.31555" stroke-linecap="round"/>
<path d="M580.628 249.391C566.357 213.434 535.391 189.134 506.997 171.547C450.241 136.399 363.184 120.557 274.929 180.083C227.693 211.942 159.41 283.694 154.676 360.509C152.559 394.868 164.11 466.373 185.19 487.825" stroke="#FF9F68" stroke-width="1.31555" stroke-linecap="round"/>
<path d="M-16.9472 483.808C6.44415 527.82 -12.0104 583.445 -58.2566 608.024C-104.503 632.603 -160.932 616.777 -184.323 572.765C-207.715 528.753 -189.26 473.128 -143.014 448.549C-96.7676 423.97 -40.3386 439.796 -16.9472 483.808Z" stroke="#FF9F68" stroke-width="1.31555" stroke-linecap="round"/>
</svg>
