<svg width="488" height="877" viewBox="0 0 488 877" fill="none" xmlns="http://www.w3.org/2000/svg">
<path d="M227.92 593.245C221.744 600.717 214.633 604.39 206.953 604.961C199.249 605.534 190.901 602.991 182.272 597.889C165.006 587.68 146.79 567.327 130.702 541.873C128.392 538.218 125.669 534.804 122.446 531.891C112.381 522.794 102.582 514.714 93.9877 507.313C85.3811 499.901 77.9846 493.171 72.6648 486.74C67.3421 480.305 64.155 474.234 63.8621 468.142C63.5708 462.08 66.1413 455.871 72.6101 449.134C80.381 441.957 87.4024 439.095 94.2916 439.271C101.208 439.448 108.102 442.687 115.607 447.952C123.111 453.216 131.147 460.449 140.362 468.53C149.567 476.602 159.925 485.498 172.033 494.044C172.563 494.418 173.133 494.748 173.715 495.028C197.3 506.338 217.937 521.251 229.121 538.164C234.707 546.613 237.923 555.542 237.993 564.763C238.062 573.976 234.992 583.531 227.92 593.245Z" stroke="#F4F4F4" stroke-width="1.1482" stroke-linecap="round"/>
<path d="M223.619 590.481C218.178 597.088 211.667 599.905 204.471 599.714C197.238 599.522 189.254 596.287 180.93 590.659C164.285 579.402 146.483 558.705 130.949 534.421C128.681 530.875 126.016 527.556 122.862 524.735C113.657 516.5 104.775 509.461 97 503.146C89.2143 496.823 82.5542 491.238 77.7418 485.888C72.9277 480.535 70.0275 475.485 69.6503 470.241C69.2751 465.025 71.3894 459.485 76.896 453.119C83.9075 447.296 90.4803 445.323 97.0699 446.054C103.704 446.792 110.438 450.278 117.727 455.546C125.015 460.813 132.789 467.807 141.519 475.492C150.24 483.168 159.897 491.517 170.914 499.453C171.57 499.925 172.283 500.326 173.016 500.651C195.538 510.641 214.217 524.767 224.237 540.566C229.243 548.46 232.079 556.757 232.173 565.159C232.267 573.55 229.627 582.087 223.619 590.481Z" stroke="#F4F4F4" stroke-width="1.1482" stroke-linecap="round"/>
<path d="M173.758 500.991L162.833 501.383M125.278 484.699L150.255 500.342C151.487 501.113 152.914 501.513 154.367 501.494L162.833 501.383M162.833 501.383L127.869 478.176M149.753 509.748L120.817 490.849M125.082 461.412C134.734 474.855 120.702 502.005 94.4116 501.004" stroke="#F4F4F4" stroke-width="1.1482" stroke-linecap="round"/>
<path d="M181.448 577.614C177.309 582.062 169.836 581.98 164.744 577.241C159.653 572.503 159.036 565.054 163.175 560.607C167.315 556.159 174.788 556.241 179.879 560.98C184.971 565.718 185.588 573.166 181.448 577.614Z" stroke="#F4F4F4" stroke-width="1.1482" stroke-linecap="round"/>
<path d="M173.871 585.702C179.498 586.716 184.871 584.866 188.304 581.178C194.768 574.233 192.576 561.686 183.409 553.154C174.242 544.621 164.609 544.104 157.083 551.181C153.791 554.718 151.946 557.316 151.418 562.927" stroke="#F4F4F4" stroke-width="1.1482" stroke-linecap="round"/>
<path d="M184.833 593.088C189.818 589.75 194.721 583.865 196.436 577.482C199.505 568.135 197.96 555.902 188.793 547.37C179.626 538.837 167.351 536.8 157.958 541.669C153.423 544.019 145.841 549.757 145.313 555.367" stroke="#F4F4F4" stroke-width="1.1482" stroke-linecap="round"/>
<path d="M195.227 597.949C200.411 593.387 205.316 586.507 206.938 578.81C210.003 567.581 207.189 553.228 195.166 542.038C183.143 530.847 169.715 530.553 158.902 534.101C153.211 535.968 143.204 544.018 140.699 548.727" stroke="#F4F4F4" stroke-width="1.1482" stroke-linecap="round"/>
<path d="M203.545 599.712C209.581 594.469 212.63 586.158 214.256 579.52C217.504 566.251 214.361 548.874 199.546 535.085C184.731 521.296 168.487 521.642 155.675 525.466C148.931 527.478 137.884 535.146 135.061 540.664" stroke="#F4F4F4" stroke-width="1.1482" stroke-linecap="round"/>
<path d="M210.578 599.219C217.335 593.404 220.296 584.832 221.989 577.325C225.372 562.319 222.27 542.168 202.664 527.428C192.171 519.539 171.406 510.069 154.321 514.819C146.679 516.944 131.977 524.841 128.891 531.047" stroke="#F4F4F4" stroke-width="1.1482" stroke-linecap="round"/>
<path d="M110.722 483.156C105.671 488.582 96.6756 488.54 90.6198 482.904C84.5639 477.267 83.8776 468.298 88.9283 462.871C93.9792 457.444 102.976 457.485 109.032 463.122C115.088 468.758 115.773 477.729 110.722 483.156Z" stroke="#F4F4F4" stroke-width="1.1482" stroke-linecap="round"/>
<path d="M114.244 486.431C106.591 494.653 93.3576 494.838 84.681 486.763C76.0044 478.687 75.2403 465.473 82.8928 457.252C90.5452 449.03 103.78 448.845 112.456 456.921C121.132 464.997 121.896 478.209 114.244 486.431Z" stroke="#F4F4F4" stroke-width="1.1482" stroke-linecap="round"/>
<path d="M448.597 838.363C440.248 843.29 432.311 844.325 424.895 842.25C417.456 840.168 410.47 834.937 404.091 827.204C391.327 811.731 381.12 786.396 374.649 756.988C373.72 752.765 372.32 748.628 370.28 744.792C363.909 732.815 357.443 721.883 351.878 712C346.306 702.103 341.639 693.259 338.824 685.401C336.008 677.539 335.076 670.747 336.872 664.918C338.66 659.118 343.189 654.154 351.564 650.019C361.313 645.913 368.889 645.61 375.307 648.119C381.751 650.637 387.133 656.028 392.399 663.531C397.665 671.035 402.762 680.569 408.679 691.303C414.59 702.025 421.305 713.914 429.784 726.068C430.155 726.6 430.579 727.105 431.031 727.565C449.362 746.223 463.696 767.267 468.461 786.975C470.841 796.82 470.828 806.311 467.757 815.006C464.689 823.693 458.551 831.634 448.597 838.363Z" stroke="#F4F4F4" stroke-width="1.1482" stroke-linecap="round"/>
<path d="M445.494 834.301C438.13 838.664 431.049 839.098 424.348 836.471C417.612 833.83 411.203 828.073 405.29 819.949C393.466 803.701 383.765 778.184 377.417 750.064C376.49 745.958 375.114 741.93 373.107 738.205C367.252 727.33 361.293 717.689 356.13 709.107C350.959 700.512 346.596 692.995 343.89 686.327C341.184 679.656 340.174 673.921 341.603 668.861C343.024 663.828 346.897 659.337 354.24 655.224C362.814 652.134 369.666 652.513 375.614 655.443C381.602 658.392 386.748 663.961 391.812 671.395C396.873 678.826 401.805 688.047 407.401 698.244C412.991 708.429 419.232 719.564 426.893 730.774C427.349 731.441 427.883 732.061 428.462 732.615C446.244 749.671 459.005 769.308 463.053 787.573C465.076 796.699 464.92 805.465 462.151 813.399C459.385 821.321 453.999 828.452 445.494 834.301Z" stroke="#F4F4F4" stroke-width="1.1482" stroke-linecap="round"/>
<path d="M429.044 733.188L418.637 729.84M388.996 701.378L407.163 724.584C408.059 725.728 409.265 726.589 410.637 727.065L418.637 729.84M418.637 729.84L393.651 696.125M403.491 733.258L382.71 705.643M396.732 679.412C401.237 695.337 378.806 716.096 354.424 706.212" stroke="#F4F4F4" stroke-width="1.1482" stroke-linecap="round"/>
<path d="M410.215 807.86C404.809 810.634 397.809 808.015 394.633 801.828C391.458 795.64 393.41 788.426 398.816 785.651C404.222 782.877 411.221 785.496 414.397 791.684C417.573 797.871 415.62 805.085 410.215 807.86Z" stroke="#F4F4F4" stroke-width="1.1482" stroke-linecap="round"/>
<path d="M400.336 812.89C405.283 815.757 410.965 815.845 415.447 813.544C423.888 809.212 426.094 796.668 420.376 785.526C414.657 774.385 405.775 770.622 396.291 774.717C391.992 776.923 389.373 778.739 386.968 783.835" stroke="#F4F4F4" stroke-width="1.1482" stroke-linecap="round"/>
<path d="M408.132 823.563C413.956 822.119 420.568 818.252 424.352 812.834C430.417 805.087 433.125 793.058 427.407 781.917C421.688 770.775 410.838 764.684 400.349 766.068C395.285 766.736 386.204 769.552 383.799 774.648" stroke="#F4F4F4" stroke-width="1.1482" stroke-linecap="round"/>
<path d="M416.254 831.668C422.681 829.141 429.633 824.339 433.777 817.653C440.478 808.137 442.714 793.682 435.214 779.069C427.714 764.456 415.186 759.612 403.812 759.271C397.825 759.092 385.676 763.258 381.719 766.834" stroke="#F4F4F4" stroke-width="1.1482" stroke-linecap="round"/>
<path d="M423.479 836.152C430.938 833.275 436.632 826.496 440.419 820.807C447.987 809.434 450.941 792.024 441.699 774.018C432.458 756.013 417.065 750.812 403.716 750.05C396.69 749.649 383.693 753.102 379.161 757.331" stroke="#F4F4F4" stroke-width="1.1482" stroke-linecap="round"/>
<path d="M430.259 838.078C438.59 834.909 444.291 827.855 448.437 821.371C456.721 808.411 460.658 788.406 447.235 767.876C440.051 756.889 423.745 740.92 406.063 739.576C398.154 738.975 381.642 741.401 376.63 746.187" stroke="#F4F4F4" stroke-width="1.1482" stroke-linecap="round"/>
<path d="M375.831 694.976C369.236 698.361 360.791 695.262 357.013 687.902C353.235 680.542 355.641 671.873 362.236 668.488C368.832 665.103 377.278 668.202 381.055 675.562C384.833 682.922 382.427 691.591 375.831 694.976Z" stroke="#F4F4F4" stroke-width="1.1482" stroke-linecap="round"/>
<path d="M378.029 699.257C368.037 704.385 355.529 700.058 350.117 689.513C344.704 678.968 348.48 666.282 358.473 661.153C368.465 656.024 380.973 660.352 386.386 670.898C391.798 681.443 388.022 694.128 378.029 699.257Z" stroke="#F4F4F4" stroke-width="1.1482" stroke-linecap="round"/>
<path d="M39.5925 623.435C44.658 615.169 45.825 607.25 43.874 599.801C41.9168 592.328 36.8032 585.256 29.1781 578.748C13.9203 565.728 -11.2416 555.099 -40.5376 548.139C-44.7444 547.139 -48.8575 545.67 -52.6583 543.567C-64.5279 536.997 -75.35 530.349 -85.1386 524.621C-94.9416 518.884 -103.707 514.07 -111.516 511.125C-119.33 508.177 -126.106 507.132 -131.964 508.831C-137.793 510.522 -142.832 514.968 -147.106 523.272C-151.375 532.951 -151.804 540.521 -149.402 546.98C-146.992 553.465 -141.692 558.936 -134.277 564.327C-126.862 569.717 -117.414 574.972 -106.781 581.068C-96.1594 587.157 -84.3841 594.069 -72.373 602.75C-71.8469 603.13 -71.3496 603.562 -70.8969 604.022C-52.5473 622.662 -31.7461 637.345 -12.1196 642.438C-2.31567 644.982 7.17363 645.127 15.9189 642.202C24.6559 639.279 32.6987 633.275 39.5925 623.435Z" stroke="#F4F4F4" stroke-width="1.1482" stroke-linecap="round"/>
<path d="M35.5819 620.264C40.0668 612.975 40.6191 605.901 38.1042 599.157C35.576 592.378 29.9266 585.874 21.9021 579.827C5.85428 567.733 -19.4981 557.607 -47.5078 550.791C-51.5979 549.796 -55.6018 548.352 -59.2935 546.284C-70.0689 540.248 -79.609 534.129 -88.1041 528.823C-96.6113 523.51 -104.054 519.022 -110.677 516.205C-117.302 513.388 -123.019 512.283 -128.102 513.627C-133.158 514.964 -137.712 518.761 -141.947 526.035C-145.181 534.556 -144.916 541.414 -142.086 547.41C-139.237 553.446 -133.754 558.684 -126.406 563.871C-119.061 569.056 -109.923 574.141 -99.8213 579.906C-89.731 585.665 -78.7009 592.091 -67.6206 599.939C-66.9614 600.405 -66.3507 600.95 -65.8056 601.538C-49.0496 619.602 -29.6283 632.689 -11.4332 637.041C-2.34238 639.216 6.42588 639.207 14.4044 636.57C22.3717 633.937 29.5913 628.671 35.5819 620.264Z" stroke="#F4F4F4" stroke-width="1.1482" stroke-linecap="round"/>
<path d="M9.73313 584.546C12.5973 579.188 10.0954 572.145 3.96165 568.867C-2.1722 565.588 -9.4177 567.42 -12.282 572.779C-15.1463 578.137 -12.6445 585.179 -6.51057 588.458C-0.376708 591.737 6.86885 589.905 9.73313 584.546Z" stroke="#F4F4F4" stroke-width="1.1482" stroke-linecap="round"/>
<path d="M14.925 574.756C17.7093 579.751 17.7026 585.433 15.3276 589.876C10.8551 598.244 -1.7241 600.241 -12.7688 594.337C-23.8136 588.433 -27.4277 579.489 -23.1748 570.075C-20.8971 565.814 -19.0378 563.225 -13.9023 560.906" stroke="#F4F4F4" stroke-width="1.1482" stroke-linecap="round"/>
<path d="M25.4678 582.73C23.9269 588.53 19.9506 595.076 14.4697 598.769C6.62313 604.704 -5.44939 607.211 -16.4941 601.307C-27.5389 595.404 -33.4479 584.454 -31.8892 573.989C-31.1367 568.937 -28.1693 559.904 -23.0337 557.584" stroke="#F4F4F4" stroke-width="1.1482" stroke-linecap="round"/>
<path d="M33.4342 590.982C30.8008 597.366 25.8837 604.237 19.1295 608.269C9.50234 614.81 -4.98724 616.804 -19.473 609.061C-33.9588 601.318 -38.5933 588.712 -38.7444 577.334C-38.8239 571.344 -34.4555 559.267 -30.814 555.37" stroke="#F4F4F4" stroke-width="1.1482" stroke-linecap="round"/>
<path d="M37.8015 598.283C34.8002 605.694 27.9278 611.273 22.1759 614.965C10.6787 622.342 -6.77845 625.005 -24.6275 615.464C-42.4766 605.924 -47.4192 590.446 -47.9584 577.086C-48.2422 570.054 -44.5732 557.117 -40.2689 552.657" stroke="#F4F4F4" stroke-width="1.1482" stroke-linecap="round"/>
<path d="M39.6149 605.093C36.3068 613.37 29.1586 618.952 22.6066 622.989C9.50995 631.056 -10.5577 634.659 -30.8605 620.895C-41.7268 613.528 -57.4209 596.958 -58.4696 579.256C-58.9387 571.338 -56.238 554.869 -51.3691 549.937" stroke="#F4F4F4" stroke-width="1.1482" stroke-linecap="round"/>
<path d="M293.404 843.966C300.324 837.177 303.378 829.778 303.293 822.078C303.208 814.353 299.963 806.252 294.146 798.089C282.504 781.754 260.674 765.337 233.943 751.474C230.104 749.484 226.471 747.061 223.294 744.098C213.374 734.843 204.489 725.768 196.383 717.835C188.265 709.891 180.93 703.094 174.069 698.341C167.204 693.585 160.884 690.927 154.79 691.153C148.724 691.379 142.757 694.469 136.595 701.488C130.105 709.841 127.852 717.081 128.614 723.93C129.379 730.806 133.193 737.4 139.077 744.429C144.962 751.458 152.852 758.849 161.689 767.343C170.514 775.827 180.26 785.391 189.806 796.727C190.224 797.223 190.601 797.763 190.929 798.319C204.206 820.855 220.822 840.148 238.626 849.851C247.519 854.698 256.689 857.143 265.883 856.427C275.068 855.712 284.328 851.839 293.404 843.966Z" stroke="#F4F4F4" stroke-width="1.1482" stroke-linecap="round"/>
<path d="M290.283 839.916C296.403 833.932 298.656 827.205 297.853 820.052C297.046 812.861 293.143 805.181 286.826 797.367C274.193 781.74 252.056 765.764 226.538 752.354C222.812 750.396 219.278 748.024 216.199 745.122C207.211 736.651 199.441 728.4 192.487 721.191C185.524 713.972 179.393 707.811 173.652 703.472C167.908 699.131 162.63 696.671 157.373 696.742C152.144 696.812 146.804 699.39 140.93 705.419C135.725 712.9 134.318 719.617 135.608 726.121C136.908 732.668 140.955 739.08 146.824 745.895C152.692 752.708 160.322 759.858 168.723 767.903C177.114 775.938 186.255 784.849 195.099 795.151C195.625 795.764 196.086 796.441 196.472 797.143C208.343 818.733 224.008 836.142 240.602 844.781C248.894 849.097 257.402 851.216 265.782 850.594C274.15 849.973 282.432 846.617 290.283 839.916Z" stroke="#F4F4F4" stroke-width="1.1482" stroke-linecap="round"/>
<path d="M196.874 797.856L196.334 786.937M176.514 750.939L194.227 774.494C195.1 775.655 195.62 777.043 195.724 778.492L196.334 786.937M196.334 786.937L170.235 754.076M203.556 773.193L182.261 745.971M153.295 752.726C167.51 761.199 193.368 744.907 190.132 718.797" stroke="#F4F4F4" stroke-width="1.1482" stroke-linecap="round"/>
<path d="M273.875 798.996C277.954 794.493 277.236 787.054 272.081 782.384C266.926 777.715 259.453 777.734 255.374 782.237C251.294 786.74 252.012 794.179 257.167 798.849C262.322 803.518 269.796 803.499 273.875 798.996Z" stroke="#F4F4F4" stroke-width="1.1482" stroke-linecap="round"/>
<path d="M281.288 790.757C282.777 796.278 281.392 801.788 278.009 805.522C271.64 812.554 258.952 811.439 249.67 803.031C240.389 794.623 239.053 785.069 245.464 776.969C248.707 773.388 251.139 771.328 256.684 770.324" stroke="#F4F4F4" stroke-width="1.1482" stroke-linecap="round"/>
<path d="M289.58 801.049C286.677 806.301 281.231 811.686 275.018 813.939C265.966 817.792 253.645 817.294 244.364 808.887C235.082 800.479 232.007 788.422 236.059 778.649C238.015 773.931 243.086 765.888 248.631 764.884" stroke="#F4F4F4" stroke-width="1.1482" stroke-linecap="round"/>
<path d="M295.306 810.991C291.202 816.545 284.765 822.018 277.234 824.289C266.307 828.299 251.767 826.717 239.593 815.69C227.42 804.663 225.983 791.309 228.598 780.234C229.974 774.404 237.143 763.748 241.622 760.851" stroke="#F4F4F4" stroke-width="1.1482" stroke-linecap="round"/>
<path d="M297.771 819.13C293.061 825.59 285.04 829.336 278.564 831.52C265.62 835.887 248.039 834.234 233.039 820.646C218.039 807.059 217 790.845 219.719 777.754C221.151 770.863 227.85 759.203 233.108 755.92" stroke="#F4F4F4" stroke-width="1.1482" stroke-linecap="round"/>
<path d="M297.875 826.177C292.657 833.404 284.368 837.084 277.032 839.41C262.369 844.058 242.027 842.683 225.671 824.403C216.918 814.619 205.714 794.736 208.993 777.309C210.46 769.514 217.077 754.192 222.997 750.59" stroke="#F4F4F4" stroke-width="1.1482" stroke-linecap="round"/>
<path d="M173.735 736.565C178.712 731.071 177.905 722.111 171.773 716.557C165.642 711.003 156.646 711.083 151.669 716.577C146.692 722.072 147.499 731.032 153.631 736.586C159.762 742.14 168.758 742.06 173.735 736.565Z" stroke="#F4F4F4" stroke-width="1.1482" stroke-linecap="round"/>
<path d="M177.301 739.794C184.842 731.47 183.899 718.268 175.115 710.311C166.33 702.353 153.099 702.717 145.559 711.041C138.018 719.366 138.961 732.568 147.746 740.525C156.531 748.483 169.761 748.119 177.301 739.794Z" stroke="#F4F4F4" stroke-width="1.1482" stroke-linecap="round"/>
</svg>
