<svg width="1310" height="143" viewBox="0 0 1310 143" fill="none" xmlns="http://www.w3.org/2000/svg">
<defs>
<style>
text {
    font-family: 'Museo Sans Cyrl', sans-serif;
    font-weight: 900;
}
</style>
</defs>
<path d="M1146.95 70.1562L1307.66 64.0066L1305.56 9.01749L1144.95 17.884C1153.36 35.7684 1151.19 52.6117 1146.95 70.1562Z" fill="#2E2E2E"/>
<path d="M-92.389 141.526C311.615 126.066 1026.22 93.3034 1124.11 84.7743C1135.99 83.7387 1145.35 76.7785 1146.95 70.1562C1151.19 52.6117 1153.36 35.7684 1144.95 17.884C1144.45 17.0754 1143.99 16.2755 1143.53 15.4886C1136.85 3.83191 1123.97 0.974678 1110.54 1.40619C958.987 6.27616 158.603 28.9131 -95.957 48.2837C-122.065 50.2704 -143.41 60.8194 -142.173 93.1501C-140.526 136.185 -109.202 142.17 -92.389 141.526Z" fill="#2E2E2E"/>
<path d="M1146.95 70.1562C1145.35 76.7785 1135.99 83.7387 1124.11 84.7743C1026.22 93.3034 311.615 126.066 -92.389 141.526C-109.202 142.17 -140.526 136.185 -142.173 93.1501C-143.41 60.8194 -122.065 50.2704 -95.957 48.2837C158.603 28.9131 958.987 6.27616 1110.54 1.40619C1123.97 0.974679 1136.85 3.83191 1143.53 15.4886C1143.99 16.2755 1144.46 17.0754 1144.95 17.884M1146.95 70.1562L1307.66 64.0066L1305.56 9.01749L1144.95 17.884M1146.95 70.1562C1151.19 52.6117 1153.36 35.7684 1144.95 17.884" stroke="#FF9F68" stroke-width="2.73063"/>
<text x="570" y="65" font-size="28" fill="#FFFFFF" text-anchor="middle" transform="rotate(-1.84 570 65)">
<tspan x="570" dy="0">MUSEO</tspan>
<tspan x="570" dy="24">SNEAKERS</tspan>
</text>
<text x="950" y="50" font-size="28" fill="#FFFFFF" text-anchor="middle" transform="rotate(-1.61 950 50)">
<tspan x="950" dy="0">MUSEO</tspan>
<tspan x="950" dy="24">SNEAKERS</tspan>
</text>
</svg>
