<svg width="1141" height="798" viewBox="0 0 1141 798" fill="none" xmlns="http://www.w3.org/2000/svg">
<defs>
<style>
text {
    font-family: 'Museo Sans Cyrl', sans-serif;
    font-weight: 900;
}
</style>
</defs>
<path d="M-52.6258 788.502C294.489 581.211 905.871 209.802 987.681 155.379C997.615 148.771 1002.49 138.176 1000.72 131.597C996.025 114.169 989.852 98.3482 973.898 86.6857C973.075 86.2135 972.28 85.7365 971.507 85.2623C960.055 78.2368 947.378 81.9074 935.801 88.7252C805.142 165.67 113.63 569.326 -100.467 708.389C-122.425 722.651 -136.098 742.143 -119.51 769.922C-97.4293 806.897 -67.0709 797.128 -52.6258 788.502Z" fill="#2E2E2E"/>
<path d="M1000.72 131.597L1138.8 49.1382L1110.59 1.89224L973.898 86.6857C989.852 98.3482 996.025 114.169 1000.72 131.597Z" fill="#2E2E2E"/>
<path d="M1000.72 131.597C1002.49 138.176 997.615 148.771 987.682 155.379C905.871 209.802 294.489 581.211 -52.6258 788.502C-67.0709 797.128 -97.4293 806.897 -119.51 769.922C-136.098 742.143 -122.425 722.651 -100.467 708.389C113.63 569.326 805.142 165.67 935.801 88.7252C947.378 81.9074 960.055 78.2368 971.507 85.2623C972.28 85.7365 973.075 86.2135 973.898 86.6857M1000.72 131.597L1138.8 49.1382L1110.59 1.89223L973.898 86.6857M1000.72 131.597C996.025 114.169 989.852 98.3482 973.898 86.6857" stroke="#FF9F68" stroke-width="2.73063"/>
<text x="200" y="575" font-size="28" fill="#FFFFFF" text-anchor="middle" transform="rotate(-30.53 200 575)">
<tspan x="200" dy="0">MUSEO</tspan>
<tspan x="200" dy="24">SNEAKERS</tspan>
</text>
<text x="520" y="380" font-size="28" fill="#FFFFFF" text-anchor="middle" transform="rotate(-31.4 520 380)">
<tspan x="520" dy="0">MUSEO</tspan>
<tspan x="520" dy="24">SNEAKERS</tspan>
</text>
<text x="840" y="190" font-size="28" fill="#FFFFFF" text-anchor="middle" transform="rotate(-30.35 840 190)">
<tspan x="840" dy="0">MUSEO</tspan>
<tspan x="840" dy="24">SNEAKERS</tspan>
</text>
</svg>
