<svg width="1351" height="353" viewBox="0 0 1351 353" fill="none" xmlns="http://www.w3.org/2000/svg">
<defs>
<style>
text {
    font-family: 'Museo Sans Cyrl', sans-serif;
    font-weight: 900;
}
</style>
</defs>
<path d="M-22.046 350.323C374.615 272.107 1075.39 128.405 1170.75 104.729C1182.33 101.854 1190.49 93.5211 1191.04 86.7303C1192.49 68.7396 1192.01 51.7642 1180.92 35.4082C1180.3 34.6866 1179.72 33.9695 1179.15 33.2625C1170.73 22.7891 1157.56 21.9741 1144.36 24.4926C995.418 52.9159 208.335 199.98 -40.098 258.775C-65.5775 264.806 -85.0187 278.552 -78.7594 310.295C-70.4277 352.547 -38.553 353.578 -22.046 350.323Z" fill="#2E2E2E"/>
<path d="M1191.04 86.7303L1348.83 55.6163L1338.18 1.62654L1180.92 35.4082C1192.01 51.7642 1192.49 68.7396 1191.04 86.7303Z" fill="#2E2E2E"/>
<path d="M1191.04 86.7303C1190.49 93.5211 1182.33 101.854 1170.75 104.729C1075.39 128.405 374.615 272.107 -22.046 350.323C-38.553 353.578 -70.4277 352.547 -78.7594 310.295C-85.0187 278.552 -65.5775 264.806 -40.098 258.775C208.335 199.98 995.418 52.9159 1144.36 24.4926C1157.56 21.9741 1170.73 22.7891 1179.15 33.2625C1179.72 33.9695 1180.3 34.6866 1180.92 35.4082M1191.04 86.7303L1348.83 55.6163L1338.18 1.62653L1180.92 35.4082M1191.04 86.7303C1192.49 68.7396 1192.01 51.7641 1180.92 35.4082" stroke="#FF9F68" stroke-width="2.73063"/>
<text x="230" y="240" font-size="28" fill="#FFFFFF" text-anchor="middle" transform="rotate(-11.47 230 240)">
<tspan x="230" dy="0">MUSEO</tspan>
<tspan x="230" dy="24">SNEAKERS</tspan>
</text>
<text x="600" y="170" font-size="28" fill="#FFFFFF" text-anchor="middle" transform="rotate(-11.01 600 170)">
<tspan x="600" y="170" dy="0">MUSEO</tspan>
<tspan x="600" dy="24">SNEAKERS</tspan>
</text>
<text x="970" y="100" font-size="28" fill="#FFFFFF" text-anchor="middle" transform="rotate(-10.6 970 100)">
<tspan x="970" dy="0">MUSEO</tspan>
<tspan x="970" dy="24">SNEAKERS</tspan>
</text>
</svg>
