<svg width="1198" height="1118" viewBox="0 0 1198 1118" fill="none" xmlns="http://www.w3.org/2000/svg">
<path d="M730.294 730.036C782.586 667.88 930.245 514.609 1102.55 398.774C1107.97 397.41 1119.68 398.863 1123.16 415.592C1132.09 421.805 1154.85 442.498 1174.41 475.57C1053.26 578.428 778.531 792.929 671.271 864.34C532.595 956.665 527.525 934.797 469.886 969.685C424.439 997.194 326.345 1038.26 318.09 1037.99C295.638 1013.38 287.977 986.913 287.317 964.322C291.329 968.306 312.209 968.922 363.644 939.518C449.991 887.896 484.966 892.911 491.66 901.872L509.183 914.554C503.622 907.111 495.184 902.998 491.66 901.872C536.274 878.851 635.591 802.935 679.673 767.854L730.294 730.036Z" fill="#2E2E2E"/>
<path d="M1174.41 475.57C1190.9 489.024 1160.36 553.723 611.322 928.459C528.594 986.504 354.129 1089.67 318.09 1037.99C326.345 1038.26 424.439 997.194 469.886 969.685C527.525 934.797 532.595 956.665 671.271 864.34C778.531 792.929 1053.26 578.428 1174.41 475.57Z" fill="#2E2E2E"/>
<path d="M730.294 730.036C728.364 641.267 961.695 450.841 1078.6 366.724C1085.14 369.983 1099.09 380.955 1102.55 398.774C930.245 514.609 782.586 667.88 730.294 730.036Z" fill="#2E2E2E"/>
<path d="M981.523 247.553C1007.27 283.735 1018 297.091 1020.14 299.246C1036.03 312.614 1069.97 344.823 1078.6 366.724C961.695 450.841 728.364 641.267 730.294 730.036L679.673 767.854C675.228 767.844 664.852 765.97 652.891 763.437C668.406 730.809 708.475 674.079 755.304 612.688C800.665 553.221 852.369 489.381 894.242 438.836C935.458 389.084 967.149 352.213 973.894 345.072C994.566 323.185 946.59 317.143 934.724 316.343C925.821 311.718 920.332 288.756 969.598 233.908C974.206 238.379 978.241 242.94 981.523 247.553Z" fill="#2E2E2E"/>
<path d="M823.585 454.145C831.448 440.538 873.966 438.27 894.242 438.836C852.369 489.381 800.665 553.221 755.304 612.688C774.788 565.51 815.722 467.752 823.585 454.145Z" fill="#2E2E2E"/>
<path d="M713.141 472.22C721.43 450.563 704.752 447.343 695.377 448.441C679.202 446.094 667.806 447.07 661.647 441.42C657.493 437.611 655.721 430.79 656.468 417.906C654.029 356.035 663.767 347.74 669.995 343.363C683.425 333.329 745.531 349.668 766.226 340.739C782.781 333.596 813.109 282.116 826.204 257.269C842.19 234.137 876.292 186.418 884.816 180.589C907.681 191.109 934.582 205.561 955.571 221.835C938.061 243.509 904.272 289.802 909.207 301.579C915.376 316.3 922.859 315.542 934.724 316.343C946.59 317.143 994.566 323.185 973.894 345.072C967.149 352.213 935.458 389.084 894.242 438.836C873.966 438.27 831.448 440.538 823.585 454.145C815.722 467.752 774.788 565.51 755.304 612.688C708.475 674.079 668.406 730.809 652.891 763.437C637.083 760.09 618.507 755.592 607.203 752.726C639.062 668.248 704.853 493.876 713.141 472.22Z" fill="#2E2E2E"/>
<path d="M669.995 343.363C668.365 329.116 642.501 327.389 629.772 328.307C628.069 326.027 626.414 321.101 624.868 314.73L826.204 257.269C813.109 282.116 782.781 333.596 766.226 340.739C745.531 349.668 683.425 333.329 669.995 343.363Z" fill="#2E2E2E"/>
<path d="M802.362 190.882C835.772 175.868 862.849 162.237 871.246 155.962C873.861 154.009 875.551 151.508 876.34 149.016C895.872 158.976 941.442 205.06 961.785 226.858C959.782 225.166 957.707 223.491 955.571 221.835C934.582 205.561 907.681 191.109 884.816 180.589C876.292 186.418 842.19 234.137 826.204 257.269L624.868 314.73C622.625 305.492 620.612 293.218 619.014 281.574C685.859 259.02 817.486 221.899 802.362 190.882Z" fill="#2E2E2E"/>
<path d="M616.043 256.409C623.828 253.646 631.261 251.542 637.372 250.139C669.909 246.144 745.354 216.5 802.362 190.882C817.486 221.899 685.859 259.02 619.014 281.574C617.717 272.114 616.693 263.071 616.043 256.409Z" fill="#2E2E2E"/>
<path d="M551.433 306.952C547.49 291.258 541.442 257.497 547.35 241.682C552.155 228.816 557.285 211.093 562.385 199.323C624.109 194.034 662.715 213.677 674.303 224.16C565.634 246.911 547.108 288.299 551.433 306.952Z" fill="#2E2E2E"/>
<path d="M570.908 187.031C578.652 184.468 644.701 180.228 694.694 216.98L674.303 224.16C662.715 213.677 624.109 194.034 562.385 199.323C565.257 192.695 568.119 187.954 570.908 187.031Z" fill="#2E2E2E"/>
<path d="M674.303 224.16L694.694 216.98C715.938 214.533 778.828 196.009 860.432 141.487C873.161 134.384 878.671 141.661 876.34 149.016C875.551 151.508 873.861 154.009 871.246 155.962C862.849 162.237 835.772 175.868 802.362 190.882C745.354 216.5 669.909 246.144 637.372 250.139C631.261 251.542 623.828 253.646 616.043 256.409C589.457 265.842 558.758 282.954 562.523 306.057C557.813 306.831 553.781 307.532 551.636 307.749C551.569 307.489 551.501 307.223 551.433 306.952C547.108 288.299 565.634 246.911 674.303 224.16Z" fill="#2E2E2E"/>
<path d="M955.571 221.835C957.707 223.491 959.782 225.166 961.785 226.858C964.534 229.178 967.147 231.531 969.598 233.908C920.332 288.756 925.821 311.718 934.724 316.343C922.859 315.542 915.376 316.3 909.207 301.579C904.272 289.802 938.061 243.509 955.571 221.835Z" fill="#2E2E2E"/>
<path d="M562.795 434.727C568.759 414.7 575.948 369.164 556.993 347.24C574.705 349.051 607.838 350.467 622.604 351.031C625.758 351.152 628.074 351.233 629.222 351.272C637.477 351.548 635.033 432.308 630.379 439.006C629.908 439.685 627.716 440.063 624.344 440.204C620.186 440.379 614.234 440.192 607.506 439.765C592.759 438.828 574.282 436.731 562.795 434.727Z" fill="#2E2E2E"/>
<path d="M630.379 439.006C635.033 432.308 637.477 351.548 629.222 351.272C628.074 351.233 625.758 351.152 622.604 351.031C622.061 348.869 622.782 344.806 624.336 340.423C625.891 336.039 646.785 338.151 648.068 342.024C649.352 345.896 647.932 432.336 641.212 440.579C624.073 446.941 622.826 442.98 624.344 440.204C627.716 440.063 629.908 439.685 630.379 439.006Z" fill="#2E2E2E"/>
<path d="M562.429 335.124C582.821 327.945 593.683 310.165 591.626 305.257C590.159 301.756 574.243 304.133 562.523 306.057C558.758 282.954 589.457 265.842 616.043 256.409C616.693 263.071 617.717 272.114 619.014 281.574C620.612 293.218 622.625 305.492 624.868 314.73C626.414 321.101 628.069 326.027 629.772 328.307C642.501 327.389 668.365 329.116 669.995 343.363C663.767 347.74 654.029 356.035 656.468 417.906C655.721 430.79 657.493 437.611 661.647 441.42C660.589 445.969 655.326 455.162 642.737 455.548C627 456.029 611.591 457.873 608.694 448.763C607.257 443.392 607.303 440.527 607.506 439.765C614.234 440.192 620.186 440.379 624.344 440.204C622.826 442.98 624.073 446.941 641.212 440.579C647.932 432.336 649.352 345.896 648.068 342.024C646.785 338.151 625.891 336.039 624.336 340.423C622.782 344.806 622.061 348.869 622.604 351.031C607.838 350.467 574.705 349.051 556.993 347.24L548.518 346.668C549.885 344.189 554.582 338.41 562.429 335.124Z" fill="#2E2E2E"/>
<path d="M545.128 346.44C544.815 346.394 544.198 346.33 543.224 346.251C543.533 333.669 545.65 308.355 551.636 307.749C553.781 307.532 557.813 306.831 562.523 306.057C574.243 304.133 590.159 301.756 591.626 305.257C593.683 310.165 582.821 327.945 562.429 335.124C554.582 338.41 549.885 344.189 548.518 346.668L545.128 346.44Z" fill="#2E2E2E"/>
<path d="M545.513 433.141C537 432.52 520.236 429.472 521.279 422.249C520.777 412.959 508.497 344.81 525.007 345.363C534.782 345.69 540.45 346.027 543.224 346.251C544.198 346.33 544.815 346.394 545.128 346.44C553.183 365.122 564.537 408.618 545.513 433.141Z" fill="#2E2E2E"/>
<path d="M554.54 434.451L545.513 433.141C564.537 408.618 553.183 365.122 545.128 346.44L548.518 346.668L556.993 347.24C575.948 369.164 568.759 414.7 562.795 434.727L554.54 434.451Z" fill="#2E2E2E"/>
<path d="M490.9 722.019C511.63 798.031 489.965 828.5 476.541 834.233C461.161 825.855 423.796 808.879 397.38 807.995C391.706 806.864 385.837 798.576 407.75 774.473C412.562 769.353 416.405 765.241 419.386 762.037L450.811 789.019C455.977 785.16 467.321 789.572 448.572 734.31L457.759 715.365L465.874 722.995C472.069 720.515 480.911 708.218 466.715 678.873L485.861 642.017L498.46 669.655C504.395 668.98 512.508 660.448 497.486 631.721L510.945 602.335L522.531 617.843C528.379 617.77 536.009 610.029 519.751 579.648L532.177 551.033C537.754 559.217 550.873 573.473 558.728 565.026C562.281 561.206 554.318 546.068 546.114 535.789L562.948 503.881C568.619 507.162 581.045 512.592 585.386 508.06C589.336 503.936 585.366 493.778 573.774 477.985C576.985 469.171 588.465 450.988 608.694 448.763C611.591 457.873 627 456.029 642.737 455.548C655.326 455.162 660.589 445.969 661.647 441.42C667.806 447.07 679.202 446.094 695.377 448.441C684.205 500.281 640.062 499.154 613.703 528.511C575.303 607.368 513.888 683.626 492.941 713.979C491.779 717.031 491.076 719.721 490.9 722.019Z" fill="#2E2E2E"/>
<path d="M557.6 457.939C551.012 447.397 552.815 437.888 554.54 434.451L562.795 434.727C574.282 436.731 592.759 438.828 607.506 439.765C607.303 440.527 607.257 443.392 608.694 448.763C588.465 450.988 576.985 469.171 573.774 477.985C569.442 472.083 564.045 465.394 557.6 457.939Z" fill="#2E2E2E"/>
<path d="M585.386 508.06C581.045 512.592 568.619 507.162 562.948 503.881C561.832 503.105 556.765 498.191 545.434 484.748C534.104 471.305 540.765 444.742 545.513 433.141L554.54 434.451C552.815 437.888 551.012 447.397 557.6 457.939C564.045 465.394 569.442 472.083 573.774 477.985C585.366 493.778 589.336 503.936 585.386 508.06Z" fill="#2E2E2E"/>
<path d="M539.95 529.118L545.927 500.489C543.727 501.264 540.814 502.694 537.88 504.8C537.235 498.767 542.648 488.918 545.434 484.748C556.765 498.191 561.832 503.105 562.948 503.881L546.114 535.789C544.012 533.156 541.894 530.841 539.95 529.118Z" fill="#2E2E2E"/>
<path d="M558.728 565.026C550.873 573.473 537.754 559.217 532.177 551.033C530.639 549.964 528.045 546.322 526.586 539.102C525.926 535.837 525.499 531.841 525.506 527.021C525.522 516.55 531.748 509.201 537.88 504.8C540.814 502.694 543.727 501.264 545.927 500.489L539.95 529.118C541.894 530.841 544.012 533.156 546.114 535.789C554.318 546.068 562.281 561.206 558.728 565.026Z" fill="#2E2E2E"/>
<path d="M522.531 617.843L510.945 602.335C509.313 600.898 508.083 599.212 507.204 597.327C499.975 581.841 516.349 552.973 526.586 539.102C528.045 546.322 530.639 549.964 532.177 551.033L519.751 579.648C536.009 610.029 528.379 617.77 522.531 617.843Z" fill="#2E2E2E"/>
<path d="M498.46 669.655L485.861 642.017C480.918 635.4 498.03 609.467 507.204 597.327C508.083 599.212 509.313 600.898 510.945 602.335L497.486 631.721C512.508 660.448 504.395 668.98 498.46 669.655Z" fill="#2E2E2E"/>
<path d="M466.715 678.873C480.911 708.218 472.069 720.515 465.874 722.995L457.759 715.365L449.644 707.735L466.715 678.873Z" fill="#2E2E2E"/>
<path d="M427.389 753.358C428.779 743.728 435.177 721.121 449.644 707.735L457.759 715.365L448.572 734.31C467.321 789.572 455.977 785.16 450.811 789.019L419.386 762.037C423.961 757.12 426.502 754.345 427.389 753.358Z" fill="#2E2E2E"/>
<path d="M372.498 884.576C330.757 918.337 304.681 920.206 296.861 916.92C300.882 908.009 326.615 873.749 397.38 807.995C423.796 808.879 461.161 825.855 476.541 834.233C459.252 836.946 414.239 850.814 372.498 884.576Z" fill="#2E2E2E"/>
<path d="M296.861 916.92C304.681 920.206 330.757 918.337 372.498 884.576C414.239 850.814 459.252 836.946 476.541 834.233C489.965 828.5 511.63 798.031 490.9 722.019C491.076 719.721 491.779 717.031 492.941 713.979C508.169 725.743 575.46 744.712 607.203 752.726C618.507 755.592 637.083 760.09 652.891 763.437C664.852 765.97 675.228 767.844 679.673 767.854C635.591 802.935 536.274 878.851 491.66 901.872C484.966 892.911 449.991 887.896 363.644 939.518C312.209 968.922 291.329 968.306 287.317 964.322C286.724 943.997 291.796 926.807 296.861 916.92Z" fill="#2E2E2E"/>
<path d="M613.703 528.511C640.062 499.154 684.205 500.281 695.377 448.441C704.752 447.343 721.43 450.563 713.141 472.22C704.853 493.876 639.062 668.248 607.203 752.726C575.46 744.712 508.169 725.743 492.941 713.979C513.888 683.626 575.303 607.368 613.703 528.511Z" fill="#2E2E2E"/>
<path d="M852.178 167.067C860.68 170.123 872.126 174.751 884.816 180.589M1078.6 366.724C1069.97 344.823 1036.03 312.614 1020.14 299.246C1018 297.091 1007.27 283.735 981.523 247.553C978.241 242.94 974.206 238.379 969.598 233.908M1078.6 366.724C961.695 450.841 728.364 641.267 730.294 730.036M1078.6 366.724C1085.14 369.983 1099.09 380.955 1102.55 398.774M730.294 730.036C782.586 667.88 930.245 514.609 1102.55 398.774M730.294 730.036L679.673 767.854M1102.55 398.774C1107.97 397.41 1119.68 398.863 1123.16 415.592C1132.09 421.805 1154.85 442.498 1174.41 475.57M1174.41 475.57C1190.9 489.024 1160.36 553.723 611.322 928.459C528.594 986.504 354.129 1089.67 318.09 1037.99M1174.41 475.57C1053.26 578.428 778.531 792.929 671.271 864.34C532.595 956.665 527.525 934.797 469.886 969.685C424.439 997.194 326.345 1038.26 318.09 1037.99M318.09 1037.99C295.638 1013.38 287.977 986.913 287.317 964.322M296.861 916.92C304.681 920.206 330.757 918.337 372.498 884.576C414.239 850.814 459.252 836.946 476.541 834.233M296.861 916.92C291.796 926.807 286.724 943.997 287.317 964.322M296.861 916.92C300.882 908.009 326.615 873.749 397.38 807.995M476.541 834.233C489.965 828.5 511.63 798.031 490.9 722.019C491.076 719.721 491.779 717.031 492.941 713.979M476.541 834.233C461.161 825.855 423.796 808.879 397.38 807.995M695.377 448.441C684.205 500.281 640.062 499.154 613.703 528.511C575.303 607.368 513.888 683.626 492.941 713.979M695.377 448.441C704.752 447.343 721.43 450.563 713.141 472.22C704.853 493.876 639.062 668.248 607.203 752.726M695.377 448.441C679.202 446.094 667.806 447.07 661.647 441.42M607.203 752.726C575.46 744.712 508.169 725.743 492.941 713.979M607.203 752.726C618.507 755.592 637.083 760.09 652.891 763.437M679.673 767.854C635.591 802.935 536.274 878.851 491.66 901.872M679.673 767.854C675.228 767.844 664.852 765.97 652.891 763.437M491.66 901.872C495.184 902.998 503.622 907.111 509.183 914.554L491.66 901.872ZM491.66 901.872C484.966 892.911 449.991 887.896 363.644 939.518C312.209 968.922 291.329 968.306 287.317 964.322M397.38 807.995C391.706 806.864 385.837 798.576 407.75 774.473C412.562 769.353 416.405 765.241 419.386 762.037M449.644 707.735C435.177 721.121 428.779 743.728 427.389 753.358C426.502 754.345 423.961 757.12 419.386 762.037M449.644 707.735L466.715 678.873M449.644 707.735L445.782 702.566C456.55 679.057 464.224 676.975 466.715 678.873M449.644 707.735L457.759 715.365M466.715 678.873C480.911 708.218 472.069 720.515 465.874 722.995L457.759 715.365M466.715 678.873L485.861 642.017M485.861 642.017L498.46 669.655C504.395 668.98 512.508 660.448 497.486 631.721L510.945 602.335M485.861 642.017C480.918 635.4 498.03 609.467 507.204 597.327M510.945 602.335L522.531 617.843C528.379 617.77 536.009 610.029 519.751 579.648L532.177 551.033M510.945 602.335C509.313 600.898 508.083 599.212 507.204 597.327M532.177 551.033C537.754 559.217 550.873 573.473 558.728 565.026C562.281 561.206 554.318 546.068 546.114 535.789M532.177 551.033C530.639 549.964 528.045 546.322 526.586 539.102M526.586 539.102C525.926 535.837 525.499 531.841 525.506 527.021C525.522 516.55 531.748 509.201 537.88 504.8M526.586 539.102C516.349 552.973 499.975 581.841 507.204 597.327M419.386 762.037L450.811 789.019C455.977 785.16 467.321 789.572 448.572 734.31L457.759 715.365M546.114 535.789C544.012 533.156 541.894 530.841 539.95 529.118L545.927 500.489C543.727 501.264 540.814 502.694 537.88 504.8M546.114 535.789L562.948 503.881M562.948 503.881C568.619 507.162 581.045 512.592 585.386 508.06C589.336 503.936 585.366 493.778 573.774 477.985M562.948 503.881C561.832 503.105 556.765 498.191 545.434 484.748M554.54 434.451C552.815 437.888 551.012 447.397 557.6 457.939C564.045 465.394 569.442 472.083 573.774 477.985M554.54 434.451L545.513 433.141M554.54 434.451L562.795 434.727M545.513 433.141C540.765 444.742 534.104 471.305 545.434 484.748M545.513 433.141C537 432.52 520.236 429.472 521.279 422.249C520.777 412.959 508.497 344.81 525.007 345.363C534.782 345.69 540.45 346.027 543.224 346.251M545.513 433.141C564.537 408.618 553.183 365.122 545.128 346.44M545.434 484.748C542.648 488.918 537.235 498.767 537.88 504.8M545.128 346.44C544.815 346.394 544.198 346.33 543.224 346.251M545.128 346.44L548.518 346.668M562.795 434.727C568.759 414.7 575.948 369.164 556.993 347.24M562.795 434.727C574.282 436.731 592.759 438.828 607.506 439.765M556.993 347.24L548.518 346.668M556.993 347.24C574.705 349.051 607.838 350.467 622.604 351.031M543.224 346.251C543.533 333.669 545.65 308.355 551.636 307.749M551.636 307.749C553.781 307.532 557.813 306.831 562.523 306.057M551.636 307.749C551.564 307.488 551.496 307.222 551.433 306.952M551.636 307.749C551.569 307.489 551.501 307.223 551.433 306.952M548.518 346.668C549.885 344.189 554.582 338.41 562.429 335.124C582.821 327.945 593.683 310.165 591.626 305.257C590.159 301.756 574.243 304.133 562.523 306.057M694.694 216.98C644.701 180.228 578.652 184.468 570.908 187.031C568.119 187.954 565.257 192.695 562.385 199.323M694.694 216.98L674.303 224.16M694.694 216.98C715.938 214.533 778.828 196.009 860.432 141.487C873.161 134.384 878.671 141.661 876.34 149.016M674.303 224.16C662.715 213.677 624.109 194.034 562.385 199.323M674.303 224.16C565.634 246.911 547.108 288.299 551.433 306.952M562.385 199.323C557.285 211.093 552.155 228.816 547.35 241.682C541.442 257.497 547.49 291.258 551.433 306.952M562.523 306.057C558.758 282.954 589.457 265.842 616.043 256.409M616.043 256.409C623.828 253.646 631.261 251.542 637.372 250.139C669.909 246.144 745.354 216.5 802.362 190.882M616.043 256.409C616.693 263.071 617.717 272.114 619.014 281.574M669.995 343.363C668.365 329.116 642.501 327.389 629.772 328.307C628.069 326.027 626.414 321.101 624.868 314.73M669.995 343.363C663.767 347.74 654.029 356.035 656.468 417.906C655.721 430.79 657.494 437.611 661.647 441.42M669.995 343.363C683.425 333.329 745.531 349.668 766.226 340.739C782.781 333.596 813.109 282.116 826.204 257.269M661.647 441.42C660.589 445.969 655.326 455.162 642.737 455.548C627 456.029 611.591 457.873 608.694 448.763M608.694 448.763C607.257 443.392 607.303 440.527 607.506 439.765M608.694 448.763C588.465 450.988 576.985 469.171 573.774 477.985M607.506 439.765C614.234 440.192 620.186 440.379 624.344 440.204M624.344 440.204C627.716 440.063 629.908 439.685 630.379 439.006C635.033 432.308 637.477 351.548 629.222 351.272C628.074 351.233 625.758 351.152 622.604 351.031M624.344 440.204C622.826 442.98 624.073 446.941 641.212 440.579C647.932 432.336 649.352 345.896 648.068 342.024C646.785 338.151 625.891 336.039 624.336 340.423C622.782 344.806 622.061 348.869 622.604 351.031M619.014 281.574C685.859 259.02 817.486 221.899 802.362 190.882M619.014 281.574C620.612 293.218 622.625 305.492 624.868 314.73M802.362 190.882C835.772 175.868 862.849 162.237 871.246 155.962C873.861 154.009 875.551 151.508 876.34 149.016M624.868 314.73L826.204 257.269M826.204 257.269C842.19 234.137 876.292 186.418 884.816 180.589M884.816 180.589C907.681 191.109 934.582 205.561 955.571 221.835M961.785 226.858C941.442 205.06 895.872 158.976 876.34 149.016M961.785 226.858C959.782 225.166 957.707 223.491 955.571 221.835M961.785 226.858C964.534 229.178 967.147 231.531 969.598 233.908M955.571 221.835C938.061 243.509 904.272 289.802 909.207 301.579C915.376 316.3 922.859 315.542 934.724 316.343M934.724 316.343C946.59 317.143 994.566 323.185 973.894 345.072C967.149 352.213 935.458 389.084 894.242 438.836M934.724 316.343C925.821 311.718 920.332 288.756 969.598 233.908M652.891 763.437C668.406 730.809 708.475 674.079 755.304 612.688M894.242 438.836C873.966 438.27 831.448 440.538 823.585 454.145C815.722 467.752 774.788 565.51 755.304 612.688M894.242 438.836C852.369 489.381 800.665 553.221 755.304 612.688" stroke="#FF9F68" stroke-width="5.14886"/>
<path d="M968.336 249.074C956.959 266.165 935.391 301.073 940.133 303.973C946.061 307.599 955.34 313.554 975.2 316.437C986.29 318.354 1001.34 330.739 972.804 364.942C944.272 399.146 810.147 563.784 746.652 641.827L668.31 756.736M742.414 612.827C765.381 551.638 808.563 440.284 818.681 436.591C831.329 431.974 882.153 431.056 888.352 426.425C894.55 421.794 965.009 336.916 964.077 336.023C958.41 330.592 960.987 331.888 922.3 325.35C883.114 318.729 890.603 302.315 911.555 265.72C920.149 250.711 935.596 233.261 941.283 225.791M888.191 191.354C861.221 227.075 803.708 306.662 789.419 339.246C774.154 368.37 693.438 346.515 681.563 352.166C669.687 357.816 669.928 368.912 669.146 374.329C668.52 378.663 666.941 410.879 666.23 426.446C666.052 429.8 669 436.619 682.208 437.061C698.718 437.614 725.028 440.511 724.748 455.218C724.524 466.984 653.674 653.833 618.278 745.787M681.407 455.38C685.269 460.549 679.251 481.798 619.151 509.945C603.654 521.522 593.336 547.18 569.764 583.891C543.838 624.268 517.008 668.409 491.422 698.8C486.427 703.606 478.333 721.788 485.918 756.072C493.502 790.356 483.162 815.586 477.044 823.915M306.505 1002.87C379.024 985.743 446.542 931.758 502.696 920.736C585.417 866.991 759.13 749.455 792.213 709.276C833.566 659.051 813.445 657.974 1114.61 423.316M627.998 289.086C676.003 275.775 777.075 244.726 797.328 227.018C817.58 209.311 816.979 197.302 814.147 193.511M818.964 249.516L632.362 303.545" stroke="white" stroke-width="1.71629" stroke-dasharray="5.15 5.15"/>
<path d="M968.336 249.074C956.959 266.165 935.391 301.073 940.133 303.973C946.061 307.599 955.34 313.554 975.2 316.437C986.29 318.354 1001.34 330.739 972.804 364.942C944.272 399.146 810.147 563.784 746.652 641.827L668.31 756.736M742.414 612.827C765.381 551.638 808.563 440.284 818.681 436.591C831.329 431.974 882.153 431.056 888.352 426.425C894.55 421.794 965.009 336.916 964.077 336.023C958.41 330.592 960.987 331.888 922.3 325.35C883.114 318.729 890.603 302.315 911.555 265.72C920.149 250.711 935.596 233.261 941.283 225.791M888.191 191.354C861.221 227.075 803.708 306.662 789.419 339.246C774.154 368.37 693.438 346.515 681.563 352.166C669.687 357.816 669.928 368.912 669.146 374.329C668.52 378.663 666.941 410.879 666.23 426.446C666.052 429.8 669 436.619 682.208 437.061C698.718 437.614 725.028 440.511 724.748 455.218C724.524 466.984 653.674 653.833 618.278 745.787M681.407 455.38C685.269 460.549 679.251 481.798 619.151 509.945C603.654 521.522 593.336 547.18 569.764 583.891C543.838 624.268 517.008 668.409 491.422 698.8C486.427 703.606 478.333 721.788 485.918 756.072C493.502 790.356 483.162 815.586 477.044 823.915M306.505 1002.87C379.024 985.743 446.542 931.758 502.696 920.736C585.417 866.991 759.13 749.455 792.213 709.276C833.566 659.051 813.445 657.974 1114.61 423.316M627.998 289.086C676.003 275.775 777.075 244.726 797.328 227.018C817.58 209.311 816.979 197.302 814.147 193.511M818.964 249.516L632.362 303.545" stroke="black" stroke-opacity="0.2" stroke-width="1.71629" stroke-dasharray="5.15 5.15"/>
</svg>
